<?xml version="1.0" encoding="UTF-8"?>
<svg viewBox="0 0 793.7 1122.5" xmlns="http://www.w3.org/2000/svg" xmlns:xlink="http://www.w3.org/1999/xlink">
 <defs>
  <linearGradient id="c" xlink:href="#e"/>
  <linearGradient id="jl" x1=".57031" x2=".40625" y2="1">
   <stop stop-color="#303030" stop-opacity=".992" offset="0"/>
   <stop stop-color="#7a7a7a" stop-opacity=".996" offset="1"/>
  </linearGradient>
  <linearGradient id="hw" x1="-.38095" x2="1.5238" y1=".96875" y2=".23438" xlink:href="#e"/>
  <linearGradient id="hy" x1="1.4392" x2="-.093462" y1=".54687" y2=".51562" xlink:href="#e"/>
  <linearGradient id="hx" x1=".029739" x2="2.1301" y1=".86065" y2=".18852" xlink:href="#a"/>
  <linearGradient id="hv" x1=".37056" x2="1.7716" y1=".40625" y2=".45312" xlink:href="#a"/>
  <linearGradient id="hu" x1="-.12429" x2="2.4068" y1=".7734" y2=".57031" xlink:href="#a"/>
  <linearGradient id="es" x1="-.33334" x2=".86666" y1=".28125" y2=".74219" xlink:href="#a"/>
  <linearGradient id="hz" x1="2.161" x2="-.064522" y1=".45311" y2=".47656" gradientTransform="translate(-3.766e-6 -1.9121e-7)" xlink:href="#a"/>
  <linearGradient id="id" x1=".37571" x2="1.0112" y1=".071597" y2="1.1786" gradientTransform="translate(9.4738e-7 1.8712e-6)" xlink:href="#a"/>
  <linearGradient id="ia" x1="1.7894" x2=".14035" y1=".52345" y2=".55469" gradientTransform="translate(-1.7382e-6 2.5433e-7)" xlink:href="#a"/>
  <linearGradient id="ie" x1=".28624" x2=".70632" y1="-1.7221" y2="2.1111" gradientTransform="translate(-1.0367e-7 2.779e-6)" xlink:href="#a"/>
  <linearGradient id="if" x1="-.32648" x2="1.483" y1=".054712" y2=".42969" gradientTransform="scale(1)" xlink:href="#a"/>
  <linearGradient id="eq" xlink:href="#ej"/>
  <linearGradient id="ic" x1=".48088" x2=".6448" y1=".36643" y2=".60306" gradientTransform="scale(1)" spreadMethod="reflect" xlink:href="#e"/>
  <linearGradient id="ib" x1=".029748" x2="1.7621" y1="-.013154" y2=".039474" xlink:href="#a"/>
  <linearGradient id="hh" x1=".12093" x2="1.7654" y1="1.8203" y2=".46738" gradientTransform="scale(.94173 1.0619)" xlink:href="#b"/>
  <linearGradient id="fu" x1="-.88054" x2="2.1045" y1=".9844" y2="-.039062" xlink:href="#a"/>
  <linearGradient id="hi" x1="-1.2128" x2=".92153" y1="1.135" y2="-.62091" xlink:href="#b"/>
  <linearGradient id="hj" x1="1.6667" x2="-4.2667" y1=".41406" y2=".34375" xlink:href="#a"/>
  <linearGradient id="d" xlink:href="#b"/>
  <linearGradient id="hg" x1=".12093" x2="1.7654" y1=".86793" y2="-.485" gradientTransform="scale(.94173 1.0619)" xlink:href="#b"/>
  <linearGradient id="ft" x1=".48699" x2=".56877" y1="1.8438" y2="-.59375" xlink:href="#a"/>
  <linearGradient id="hf" x1="-1.2128" x2=".92153" y1="2.1317" y2=".37581" xlink:href="#b"/>
  <linearGradient id="he" x1=".076191" x2=".72381" y1=".95312" y2=".17188" xlink:href="#f"/>
  <linearGradient id="hr" x1="-.597" x2="2.3433" y1=".57812" y2=".67188" xlink:href="#b"/>
  <linearGradient id="hk" xlink:href="#f"/>
  <linearGradient id="ht" x1="-.37331" x2="-.32" y1=".96268" y2=".42537" xlink:href="#ej" spreadMethod="reflect"/>
  <linearGradient id="hs" x1=".084509" x2=".92958" y1=".96875" y2=".007812" xlink:href="#f"/>
  <linearGradient id="hq" x1="-.86012" x2="2.374" y1="-.91872" y2=".7878" gradientTransform="scale(1 -1)" xlink:href="#b"/>
  <linearGradient id="hl" x1=".080925" x2=".86705" y1=".078125" y2=".92188" xlink:href="#f"/>
  <linearGradient id="hp" x1="-.85608" x2="2.378" y1="-2.386" y2="-.67945" xlink:href="#b"/>
  <linearGradient id="hm" x1="-2.3569" x2=".67514" y1="1.473" y2="-.20177" xlink:href="#b"/>
  <linearGradient id="ho" x1="-.10056" x2="3.1418" y1=".35171" y2="-1.4393" gradientTransform="scale(.45619 2.1921)" xlink:href="#b"/>
  <linearGradient id="hn" x1="-.086846" x2="3.1556" y1="1.7378" y2="-.053216" gradientTransform="scale(.45619 -2.1921)" xlink:href="#b"/>
  <linearGradient id="ix" x1="-.12429" x2="2.4068" y1=".2266" y2=".42969" xlink:href="#a"/>
  <linearGradient id="ig" x1="-.24779" x2="3.0442" y1=".39844" y2=".51562" xlink:href="#a"/>
  <linearGradient id="er" y1="1" y2="1" xlink:href="#e"/>
  <linearGradient id="iz" x1="-1.2128" x2=".92153" y1="-.13499" y2="1.6209" xlink:href="#b"/>
  <linearGradient id="iy" x1="-.10056" x2="3.1418" y1=".64829" y2="2.4393" gradientTransform="scale(.45619 2.1921)" xlink:href="#b"/>
  <linearGradient id="iw" x1="-.86012" x2="2.374" y1="1.9187" y2=".2122" gradientTransform="scale(1 -1)" xlink:href="#b"/>
  <linearGradient id="fc" y1="1" y2="1" xlink:href="#b"/>
  <linearGradient id="iv" x1="-.086846" x2="3.1556" y1="-.73776" y2="1.0532" gradientTransform="scale(.45619 -2.1921)" xlink:href="#b"/>
  <linearGradient id="it" x1=".084509" x2=".92958" y1=".03125" y2=".99219" xlink:href="#f"/>
  <linearGradient id="iu" x1="-.85608" x2="2.378" y1="3.386" y2="1.6794" xlink:href="#b"/>
  <linearGradient id="ja" x1=".12093" x2="1.7654" y1=".13207" y2="1.485" gradientTransform="scale(.94173 1.0619)" xlink:href="#b"/>
  <linearGradient id="jh" y1="1" y2="1" xlink:href="#f"/>
  <linearGradient id="jb" x1="-1.2128" x2=".92153" y1="-1.1317" y2=".62419" xlink:href="#b"/>
  <linearGradient id="ji" x1=".37056" x2="1.7716" y1=".59375" y2=".54688" xlink:href="#a"/>
  <linearGradient id="jk" x1=".53125" x2=".49219" y2="1">
   <stop stop-color="#ff5d00" stop-opacity=".996" offset=".019531"/>
   <stop stop-color="#ffd98e" stop-opacity=".988" offset=".97266"/>
  </linearGradient>
  <linearGradient id="jg" x1=".080925" x2=".86705" y1=".92188" y2=".078125" xlink:href="#f"/>
  <linearGradient id="jc" x1=".12093" x2="1.7654" y1="-.82031" y2=".53262" gradientTransform="scale(.94173 1.0619)" xlink:href="#b"/>
  <linearGradient id="jd" x1="-.597" x2="2.3433" y1=".42188" y2=".32812" xlink:href="#b"/>
  <linearGradient id="jf" x1=".076191" x2=".72381" y1=".046875" y2=".82812" xlink:href="#f"/>
  <linearGradient id="je" x1="-2.3569" x2=".67514" y1="-.47299" y2="1.2018" xlink:href="#b"/>
  <linearGradient id="is" x1="1.6667" x2="-4.2667" y1=".58594" y2=".65625" xlink:href="#a"/>
  <linearGradient id="ir" x1="-.37331" x2="-.32" y1=".037315" y2=".57463" xlink:href="#ej" spreadMethod="reflect"/>
  <linearGradient id="et" x1=".50186" x2=".24907" y1=".58109" y2=".45946" xlink:href="#ek"/>
  <linearGradient id="eu" x1="1.0209" x2=".50628" y1=".92187" y2=".078125" xlink:href="#ek"/>
  <linearGradient id="ik" x1="-.4" x2="3.6" y1=".39062" y2=".26562" xlink:href="#a"/>
  <linearGradient id="ih" x1="-8.5714" x2="12.143" y1=".52344" y2=".49219" gradientTransform="translate(-1.2964e-6 -2.1731e-8)" xlink:href="#a"/>
  <linearGradient id="ij" x1=".17143" x2="-.085714" y1=".4375" y2=".41406" xlink:href="#ek"/>
  <linearGradient id="ii" x1=".52788" x2=".5316" y1=".008001" y2=".488" xlink:href="#ek" spreadMethod="reflect"/>
  <linearGradient id="fa" x1="-.40509" x2="1.962" y1=".13282" y2=".95312" gradientTransform="translate(-1.5053e-6 3.0951e-7)" xlink:href="#fd"/>
  <linearGradient id="ev" x1=".040338" x2=".94482" y1="-.98987" y2=".22973" xlink:href="#ek"/>
  <linearGradient id="im" x1="1.2286" x2="-.34286" y1=".47403" y2=".47403" xlink:href="#e"/>
  <linearGradient id="io" x1="-.015053" x2="-.035146" y1="2.443" gradientTransform="scale(1.5083 .66301)" xlink:href="#ej"/>
  <linearGradient id="in" x1=".96626" x2=".93742" y1="2.2526" y2="-1.2547" xlink:href="#ej"/>
  <linearGradient id="il" x1=".97468" x2="-.025316" y1=".42208" y2=".4026" xlink:href="#e"/>
  <linearGradient id="ew" x1=".054432" x2=".89421" y1=".0596" y2="1.192" gradientTransform="scale(1.0288 .97197)" xlink:href="#ek"/>
  <linearGradient id="ex" x1="1.148" x2=".37516" y1="-.94735" y2=".18638" xlink:href="#e"/>
  <linearGradient id="ez" gradientTransform="translate(1.0248e-6 1.8604e-7)" xlink:href="#e"/>
  <linearGradient id="eo" x1=".63336" x2="1.3448" y1="-.62922" y2="-.62922" gradientTransform="scale(.90246 1.1081)" xlink:href="#e"/>
  <linearGradient id="ey" x1="1.0829" x2=".3653" y1=".099078" y2="1.1517" gradientTransform="scale(1.0288 .97197)" xlink:href="#e"/>
  <linearGradient id="fs" x1=".51301" x2=".52416" y1=".83334" y2="-1.4" xlink:href="#a"/>
  <linearGradient id="gk" x1="-.16854" x2="-.11236" y1=".039067" y2=".86719" xlink:href="#a"/>
  <linearGradient id="gh" x1=".68402" x2=".67286" y1="1.1552" xlink:href="#b"/>
  <linearGradient id="gg" x1="-6.5338" x2="23.248" y1=".073805" y2=".16401" gradientTransform="scale(.36441 2.7442)" xlink:href="#a"/>
  <linearGradient id="gc" x1="-.6881" x2=".008444" y1=".87398" y2=".87398" gradientTransform="scale(1.5083 .66301)" xlink:href="#ej"/>
  <linearGradient id="gf" x1="-7.6854" x2="18.108" y1=".36719" y2=".44531" xlink:href="#a"/>
  <linearGradient id="gd" x1="-.26667" x2="1.1556" y1=".039062" y2=".75" xlink:href="#a"/>
  <linearGradient id="ge" x1="-1.8837" x2="1.2558" y1=".32812" y2=".41406" xlink:href="#a"/>
  <linearGradient id="gi" x1="-2.381" x2="2.7143" y1=".44531" y2=".45312" xlink:href="#a"/>
  <linearGradient id="fr" x1=".52788" x2=".54275" y1="1.1" y2="-1.9333" xlink:href="#e"/>
  <linearGradient id="fi" x1="-.023808" x2=".97619" y1="1.322" y2="1.322" gradientTransform="scale(1)" xlink:href="#b"/>
  <linearGradient id="fd">
   <stop stop-color="#f00" stop-opacity=".58" offset="0"/>
   <stop stop-color="#fff" stop-opacity="0" offset="1"/>
  </linearGradient>
  <linearGradient id="fh" x1="-1.1801" x2="1.5272" y1=".23374" y2=".41553" gradientTransform="matrix(1.1081 0 0 .90246 1.0248e-6 1.8604e-7)" xlink:href="#a"/>
  <linearGradient id="e">
   <stop stop-color="#fff" stop-opacity=".902" offset="0"/>
   <stop stop-color="#fff" stop-opacity="0" offset="1"/>
  </linearGradient>
  <linearGradient id="ip" x1=".36802" x2=".83271" y1=".28572" y2="1.0857" xlink:href="#e"/>
  <linearGradient id="a">
   <stop offset="0"/>
   <stop stop-color="#fff" offset="1"/>
  </linearGradient>
  <linearGradient id="b">
   <stop stop-opacity=".902" offset="0"/>
   <stop stop-opacity="0" offset="1"/>
  </linearGradient>
  <linearGradient id="ek">
   <stop stop-color="#3f3a4a" offset="0"/>
   <stop stop-color="#afaa9d" offset="1"/>
  </linearGradient>
  <linearGradient id="em">
   <stop stop-color="#ff0" stop-opacity=".58" offset="0"/>
   <stop stop-color="#fff" stop-opacity="0" offset="1"/>
  </linearGradient>
  <linearGradient id="ej">
   <stop stop-opacity=".38" offset="0"/>
   <stop stop-opacity="0" offset="1"/>
  </linearGradient>
  <linearGradient id="ep">
   <stop stop-color="#dddaff" stop-opacity=".82" offset="0"/>
   <stop stop-color="#6a72ff" stop-opacity=".584" offset="1"/>
  </linearGradient>
  <linearGradient id="f">
   <stop stop-color="#ffff97" offset="0"/>
   <stop stop-color="#ffffe7" offset="1"/>
  </linearGradient>
  <linearGradient id="fv" x1=".50185" x2=".53903" y1=".15618" y2="1.125" xlink:href="#e"/>
  <linearGradient id="fe" x1=".50186" x2=".49442" y1="1.45" y2=".5" xlink:href="#b"/>
  <linearGradient id="fw" x1=".79926" x2=".32714" y1=".14" y2="1.08" xlink:href="#e"/>
  <linearGradient id="ff" x1=".51301" x2=".49442" y1="1.1" y2=".8" xlink:href="#b"/>
  <linearGradient id="el" x1="-2.931" x2="2.1168" y1="-2.6292" y2="-2.7993" xlink:href="#a"/>
  <linearGradient id="fg" x1=".4498" x2=".44981" y1="-.72728" y2="1.3864" xlink:href="#b"/>
  <linearGradient id="gb" x1=".51301" x2=".50929" y1="1.2069" y2=".7069" xlink:href="#b"/>
  <linearGradient id="fx" x1="-1.6207" x2="1.8966" y1=".125" y2=".53125" xlink:href="#a"/>
  <linearGradient id="ga" x1="1.1608" x2="-.13986" y1=".40627" y2=".42188" xlink:href="#a"/>
  <linearGradient id="fy" x1=".40559" x2=".26573" y1=".53129" y2=".63282" xlink:href="#em"/>
  <linearGradient id="fz" y1="-1.07" y2="-1.07" xlink:href="#e"/>
  <linearGradient id="gj" x1="-.85075" x2=".89552" y1=".17969" y2=".24219" xlink:href="#b"/>
  <linearGradient id="fn" x1=".53903" x2=".54275" y1=".25" y2="1.0833" xlink:href="#b"/>
  <linearGradient id="gw" x1="1.3496" x2="-.1049" y1=".71094" y2=".6875" xlink:href="#a"/>
  <linearGradient id="fo" x1=".10588" x2=".92941" y1=".038961" y2=".93506" xlink:href="#ep"/>
  <linearGradient id="gx" x1=".93706" x2="-.42657" y1=".070312" y2="1.3359" xlink:href="#em"/>
  <linearGradient id="gl" x1="-1.6338" x2=".66705" y1=".068581" y2="1.1888" gradientTransform="scale(1.4631 .68348)" xlink:href="#a"/>
  <linearGradient id="gv" x1=".5316" x2=".63569" y1="1.5" y2=".58621" xlink:href="#b"/>
  <linearGradient id="gt" x1="1.2937" x2="1.1678" y1=".91406" y2=".48438" xlink:href="#e"/>
  <linearGradient id="gu" x1=".44238" x2=".64684" y1="1.76" y2=".44" xlink:href="#b"/>
  <linearGradient id="en" x1=".43662" x2=".69014" y1=".17188" y2=".41406" xlink:href="#ep" spreadMethod="reflect"/>
  <linearGradient id="hc" x1="-7.0909" x2="4.0909" y1=".39844" y2=".39844" xlink:href="#a"/>
  <linearGradient id="gy" x1=".27274" x2="2.8185" y1="-12.737" y2="-12.737" gradientTransform="translate(-5.5589e-7 -2.589e-6)" xlink:href="#e"/>
  <linearGradient id="hd" x1="-.66667" x2="12.889" y1=".3125" y2=".32031" xlink:href="#a"/>
  <linearGradient id="fq" x1=".008904" x2="1.0089" y1="-8.7888" y2="-8.7888" gradientTransform="scale(1)" xlink:href="#b"/>
  <linearGradient id="gz" x1=".27262" x2="2.8184" y1="6.8014" y2="6.8016" gradientTransform="translate(7.2043e-8 1.2358e-6)" xlink:href="#e"/>
  <linearGradient id="fp" x1=".24662" x2="2.9595" y1="-4.2768" y2="-4.3533" xlink:href="#a"/>
  <linearGradient id="hb" x1=".23772" x2="2.9505" y1="4.512" y2="4.4356" gradientTransform="scale(1)" xlink:href="#a"/>
  <linearGradient id="ha" x1=".50947" x2="1.3519" y1=".45359" y2="1.5359" gradientTransform="matrix(1 3.1953e-6 -1.538e-6 1 5.0933e-7 -6.7226e-7)" xlink:href="#a"/>
  <linearGradient id="gq" x1="-1.7692" x2=".79487" y1=".054683" y2=".90625" xlink:href="#a"/>
  <linearGradient id="fm" x1=".51672" x2=".51301" y1="1.5833" y2="-3.3333" xlink:href="#b"/>
  <linearGradient id="gp" x1="-.17948" x2="2.3846" y1=".34375" y2="1.0078" xlink:href="#a"/>
  <linearGradient id="gm" x1="-.46389" x2="1.0824" y1=".027844" y2=".78067" gradientTransform="scale(.96289 1.0385)" xlink:href="#a"/>
  <linearGradient id="go" x1="-1.1034" x2=".68966" y1=".4375" y2=".4375" xlink:href="#b"/>
  <linearGradient id="gn" x1=".92776" x2="1.5998" y1="-.012471" y2="-.012471" gradientTransform="scale(.65812 1.5195)" xlink:href="#b"/>
  <linearGradient id="gr" x1="-.31069" x2="-.12621" y1=".070311" y2="1.5781" xlink:href="#a"/>
  <linearGradient id="gs" x1=".15068" x2="1.0274" y1=".012739" y2=".95541" xlink:href="#ep"/>
  <linearGradient id="fl" x1=".513" x2=".52044" y2=".97727" xlink:href="#e"/>
  <linearGradient id="fk" x1="-.17482" x2="1.0979" y1=".4375" y2=".35156" xlink:href="#a"/>
  <linearGradient id="fj" x1=".29894" x2="1.3299" y1=".63279" y2="-.13282" xlink:href="#a"/>
  <radialGradient id="jj" cx=".50385" cy=".48443" r=".89979" xlink:href="#em"/>
  <radialGradient id="fb" cx=".5072" cy=".498" r="1.1394" gradientTransform="translate(2.8358e-6 -4.2267e-8)" xlink:href="#fd"/>
  <radialGradient id="iq" cx=".48837" cy=".49182" r="2.103" gradientTransform="translate(-9.396e-8 -1.7898e-6)" xlink:href="#em"/>
 </defs>
 <g fill-rule="evenodd">
  <g stroke-width=".781">
   <path d="m393.36 795.82zm-0.298-253.22zm251.96-14.919c66.942 0.021973 86.049 62.498 86.049 141.45 0 78.947-16.475 132.84-80.441 140.53-25.492 2.887-41.396 0.67297-63.461 1.374-32.203-0.396-45.919 0.69202-63.247-3.431-18.763-3.856-70.317 2.453-176.58 3.422 0-2.952 0 0-0.42499-0.203-13.072 0.51697-158.22-3.367-188.07-4.63l-2.198-1.024c-67.364-2.638-72.503-63.776-74.486-67.069-12.937-39.729-12.793-51.739-12.793-68.402 0-16.664-0.144-29.488 12.695-69.093 1.8855-3.167 6.9224-64.707 75.283-67.448 30.844-1.368 176.2-6.073 189.95-5.608 106.94 0.91894 158.8 6.51 177.17 2.524 16.937-4.251 30.653-3.157 62.856-3.556 22.065 0.69702 32.96-1.616 57.708 1.168z" fill="#ff7f00"/>
   <path d="m304.38 668.52c0.42099 18.305 1.172 96.83 47.649 116.23-23.474 8.855-162.49 1.688-243.73-28.678-14.666-26.142-19.397-67.983-19.608-86.576-0.2109-18.592 4.5204-60.431 19.186-86.575 81.245-30.362 220.26-37.531 243.73-28.674-46.478 19.396-47.227 97.922-47.227 114.27z" fill="url(#gt)" stroke="url(#c)"/>
   <path d="m578.84 579.07l-56.268-19.886 0.859-9.007 14.733 1.776 45.422 16.948-4.52 0.226-0.226 9.943z" fill="url(#eu)" stroke="url(#d)"/>
   <path d="m368.33 550.33c-3.037 0-15.307-13.253-17.008-15.514-2.423-3.571-4.217-4.218-4.217-7.169 106.26 0.96802 161.3 6.661 179.43 2.951 8.222 3.163 5.06 6.958 3.373 22.561-2.53 2.193-17.836-0.211-20.873-0.211-49.759 0-86.024-2.319-135.78-2.319l-4.92-0.299z" fill="url(#fe)" stroke="url(#d)"/>
   <path d="m368.48 550.33c-3.036 0-15.261-13.412-17.156-15.514-2.87-2.975 152.44 1.601 179.85 1.264 1.475 4.006 0.42096 1.476-1.266 17.079-2.53 2.193-17.836-0.211-20.873-0.211-49.759 0-86.024-2.319-135.78-2.319l-4.772-0.299z" fill="url(#in)" stroke="url(#eq)"/>
   <path d="m502.26 538.98c-1.321 0-8.349-0.76605-8.349-2.087v-0.89502c0-1.321 1.362-2.087 2.684-2.087l26.836 0.298c1.321 0 2.683 0.46802 2.683 1.789v0.89502c0 1.321-3.151 2.087-4.473 2.087h-19.381z" fill="url(#fg)" stroke="url(#fl)"/>
   <path d="m404.62 557.37c-1.818 0-31.178-4.729-29.361-4.729 37.372 0 108.06-1.231 144.32 0.64801 2.709 0.11798 3.39 3.298 2.981 5.068-1.788 8.051-5.048 7.32-6.8571 7.157-36.478-3.578-69.37 10.815-101.8-3.927l-9.276-4.217z" fill="url(#fs)" stroke="url(#fr)"/>
   <path d="m529.68 549.71c24.748 0.69604 51.584-1.889 76.035 13.418 20.623-8.846 64.802 8.548 95.862 16.399-1.987-7.752-10.387-14.461-7.305-22.363 0.99402-0.64502 1.541-2.633 4.771-0.59601-5.765-10.735-29.122-18.487-45.919-26.835-24.748-2.783-44.13-1.392-66.194-2.088-32.203 0.39795-45.919-0.69501-62.617 3.28 5.367 1.491 8.647 4.771 5.367 18.785z" fill="url(#ff)" stroke="url(#d)"/>
   <path d="m529.68 549.71c24.748 0.69604 51.584-1.889 76.035 13.418 20.623-8.846 64.802 8.548 95.862 16.399-1.987-7.752-5.914-12.672-10.585-18.189-21.369-8.099-78.419-22.263-100.48-22.959-22.513-0.198-52.255-2.236-60.269-2.758 1.325 2.65 1.081 7.082-0.55896 14.089z" fill="url(#io)" stroke="url(#gc)"/>
   <path d="m414.32 560.75c-1.816 0-11.359-8.946-9.542-8.946 37.372 0 78.546-0.38702 114.8 1.492 2.709 0.11798 3.39 3.298 2.981 5.068-1.788 8.051-5.048 7.32-6.8571 7.157-36.478-3.578-64.009-4.771-101.38-4.771z" fill="url(#ft)" stroke="url(#c)"/>
   <path d="m527.32 568.68v-3.841h12.655l-0.226-5.4239h-16.045s-1.807 9.039 3.616 9.265z" fill="url(#ew)" stroke="url(#ey)"/>
   <path d="m523.93 559.64l4.293 0.226 0.226-2.034h9.944l1.13-4.519-2.26-1.808h-5.876l-0.452 3.163-7.231 0.452 0.226 4.52z" fill="url(#ev)" stroke="url(#ex)"/>
   <path d="m534.3 550.34l49.855 18.856 27.485 2.236-12.145-9.268-33.557-10.226-31.638-1.598z" fill="url(#et)" stroke="url(#d)"/>
   <path d="m355.12 557.8l-3.373-3.585 16.024-4.006 66.837 17.079-2.741 7.379c-25.161-9.418-50.743-12.721-76.747-16.867z" fill="url(#fp)" stroke="url(#fq)"/>
   <path d="m373.25 550.63c-3.038 0 18.973-3.169 30.994-3.163 4.133 0.074036 93.825 0.336 125.66 2.108 0.633 0.84302 0.422 2.742 0 3.585-2.53 2.193-17.836-0.211-20.873-0.211-49.759 0-86.024-2.319-135.78-2.319z" fill="url(#fm)" stroke="url(#fn)"/>
   <path d="m368.23 550.16c15.008-1.541 23.041-1.315 24.898-7.305 7.757-25.989 7.852-28.924 26.836-28.626l-11.629 32.502c-2.882-0.10004-6.063 0.098999-6.858 3.28l11.629 11.032-44.876-10.883z" fill="url(#fk)" stroke="url(#d)"/>
   <path d="m393.12 542.86c7.757-25.989 7.852-28.924 26.836-28.626l-11.629 32.502c-2.882-0.10004-6.063 0.098999-6.858 3.28 0 0-10.206-1.166-8.349-7.156z" fill="url(#fj)" stroke="url(#c)"/>
   <path d="m579.13 759.83l-56.268 19.887 0.859 9.012 14.733-1.78 45.422-16.945-4.52-0.231-0.226-9.943z" fill="url(#eu)" stroke="url(#d)"/>
  </g>
  <rect transform="matrix(.92242 0 0 .92242 55.055 -125.45)" x="412.2" y="827.74" width="157.33" height="72.921" fill="url(#ii)"/>
  <g stroke-width=".781">
   <path d="m440.9 654.13l35.704 2.486c3.842-0.67896-2.711-2.712 17.175-2.486 2.711 0 29.829-1.13 35.479-1.356 16.872-2.26 29.451-8.136 45.872-9.492 1.055-23.275 1.432-42.258 3.842-65.759l-38.642-14.237-105.31-0.226 8.136 9.717-2.26 81.353z" fill="url(#hv)" stroke="url(#c)"/>
   <path d="m440.9 651.64s46.552 1.808 56.495 1.356c9.942-0.45196 52.878-4.972 54.686-26.665 1.808-21.694 1.356-30.733 1.356-30.733 0.90295-17.174-29.377-26.665-46.552-26.213-17.174 0.45099-9.038 9.942-9.038 9.942l-56.947 72.313z" fill="url(#hl)" stroke="url(#hk)"/>
   <path d="m88.687 669.53c-0.2109 18.594 4.5204 60.435 19.187 86.576-5.227 0.24005-22.158-12.268-25.818-18.134-12.784-39.378-12.64-52.311-12.64-68.659m19.271 0.181c-0.2109-18.592 4.5204-60.431 19.187-86.575-5.227-0.24701-22.158 12.265-25.818 18.138-12.784 39.376-12.64 52.302-12.64 68.655" fill="url(#fx)" stroke="url(#c)"/>
   <path d="m304.38 668.52c0.42099 18.305 1.172 96.83 47.649 116.23 0.98401 0.83899 7.03-2.537 2.954-4.216-42.919-19.823-42.59-94.133-42.801-112.72-0.211-18.593 0.30402-82.781 41.536-110.19 5.341-5.482-2.813-3.373-2.111-3.373-46.477 19.396-47.227 97.922-47.227 114.27z" fill="url(#go)" stroke="url(#d)"/>
   <g fill="none">
    <rect transform="matrix(.92242 0 0 .92242 55.055 -125.45)" x="230.08" y="818.31" width="5.8186" height="4.2023" stroke="url(#gz)"/>
    <rect transform="matrix(.92242 0 0 .92242 55.055 -125.45)" x="230.08" y="900.41" width="5.8186" height="4.2023" stroke="url(#gy)"/>
   </g>
  </g>
  <g fill="none" stroke-linecap="square" stroke-linejoin="round" stroke-width=".977">
   <path d="m83.307 610.28c-0.577 0-2.3333 3.354-2.6193 4.66-2.7229 7.723-3.5523 13.298-4.9389 21.272-0.5971 5.799-4.4871 28.994-4.6841 30.599 0.1217 0.97498 0.892-0.32599 0.9989-0.49298 2.5633-4 2.39-9.079 3.3363-13.664 1.3699-6.784 2.6886-17.154 4.9419-26.205 2.408-9.822 6.2039-20.356 2.3688-19.745" stroke="url(#c)"/>
   <path d="m83.307 728.3c-0.577 0-2.3333-3.349-2.6193-4.659-2.7229-7.72-3.5523-13.301-4.9389-21.271-0.5971-5.802-4.4871-28.993-4.6841-30.598 0.1217-0.97504 0.892 0.32495 0.9989 0.492 2.5633 4.001 2.39 9.081 3.3363 13.669 1.3699 6.78 2.6886 17.148 4.9419 26.206 2.408 9.814 6.2039 20.348 2.3688 19.739" stroke="url(#fz)"/>
  </g>
  <g stroke-width=".781">
   <path d="m107.87 756.11c3.947 9.963 10.078 33.023 48.823 49.285-67.364-2.638-72.81-64.486-74.64-67.419" fill="url(#ga)" stroke="url(#c)"/>
   <path d="m107.87 756.11c3.947 9.963 10.078 33.023 48.823 49.285-57.823-16.659-62.374-54.644-64.204-57.586" fill="url(#fy)" stroke="#ff0"/>
  </g>
  <path d="m105.82 772.72c0.002998-2.601-2.101-4.704-4.696-4.704-2.5956 0-4.6989 2.103-4.6965 4.704-0.002396 2.592 2.1009 4.695 4.6965 4.695 2.595 0 4.699-2.103 4.696-4.695z" fill="url(#iq)"/>
  <g stroke-width=".781">
   <path d="m368.05 788.71c-8.855-2.362-14.43-3.542-16.025-3.957-23.474 8.855-162.49 1.688-243.73-28.678 6.84 25.514 27.125 41.49 50.599 50.345 29.847 1.264 175 5.147 188.07 4.631 5.061-8.431 13.073-16.023 21.085-22.341z" fill="url(#gb)" stroke="url(#gh)"/>
   <path d="m368.05 788.71c-8.855-2.362-14.43-3.542-16.025-3.957-23.474 8.855-162.49 1.688-243.73-28.678 2.202 4.427 4.354 13.651 10.117 20.403 59.788 21.502 136.63 24.97 233.19 27.83 8.012-8.016 8.434-9.28 16.446-15.598z" fill="url(#fw)" stroke="url(#c)"/>
   <path d="m368.62 788.57c-3.037 0-15.306 13.255-17.008 15.515-2.423 3.57-4.216 4.216-4.216 7.168 106.26-0.96899 161.3-6.66 179.43-2.952 8.223-3.164 5.061-6.955 3.374-22.562-2.53-2.187-17.837 0.21198-20.874 0.21198-49.759 0-86.024 2.324-135.78 2.324l-4.92 0.295z" fill="url(#fe)" stroke="url(#d)"/>
   <path d="m107.58 582.77c3.947-9.962 10.078-33.02 48.823-49.282-67.364 2.639-72.81 64.484-74.64 67.421" fill="url(#gw)" stroke="url(#c)"/>
   <path d="m107.58 582.77c3.947-9.962 10.078-33.02 48.823-49.282-57.823 16.653-62.374 54.645-64.204 57.582" fill="url(#gx)" stroke="#ff0"/>
  </g>
  <path d="m105.52 566.16c0.001999 2.594-2.101 4.7-4.696 4.7-2.5959 0-4.6992-2.106-4.6966-4.7-0.002602-2.596 2.1007-4.702 4.6966-4.702 2.595 0 4.698 2.106 4.696 4.702z" fill="url(#jj)"/>
  <g stroke-width=".781">
   <path d="m365.75 551.17c-8.856 2.36-14.43 3.533-16.025 3.955-23.474-8.855-162.49-1.687-243.73 28.675 6.84-25.513 27.125-41.487 50.599-50.342 29.847-1.265 175-5.152 188.07-4.637 5.06 8.434 13.072 16.024 21.084 22.349z" fill="url(#gv)" stroke="url(#d)"/>
   <path d="m367.75 550.17c-8.856 2.36-14.43 3.533-16.025 3.955-23.474-8.855-162.49-1.687-243.73 28.675 2.202-4.429 4.354-13.656 10.117-20.402 59.787-21.506 136.63-24.971 233.19-27.831 8.012 8.013 8.434 9.278 16.446 15.603z" fill="url(#gu)" stroke="url(#c)"/>
   <path d="m367.21 564.78c-9.162 0-16.445 3.911-24.457 20.241-18.133 29.237-21.085 133.53 0 167.4 9.277 21.815 19.09 21.511 28.674 20.662l17.931-3.3391c1.245-10.285 2.25-20.874 3.045-31.574 0.79498-10.7-0.82501-18.403-5.175-29.878 9.681-9.648 7.583-23.623 7.654-33.916 0.069977-10.292-0.012024-20.278-0.21802-29.752-0.82098-37.898-3.61-67.601-6.507-75.96l-20.947-3.889z" fill="url(#ge)" stroke="url(#d)"/>
   <path d="m419.65 726.57c0 7.573-1.869 13.716-4.174 13.716-2.306 0-18.189 2.5-18.487-15.211 1.193-17.71 16.181-12.222 18.487-12.222 2.305 0 4.174 6.134 4.174 13.717z" fill="url(#gr)" stroke="url(#d)"/>
  </g>
  <path d="m419.65 726.57c0-7.583-1.869-13.717-4.174-13.717-2.306 0-4.175 6.134-4.175 13.717 0 7.573 1.869 13.716 4.175 13.716 2.305 0 4.174-6.143 4.174-13.716z" fill="url(#gq)" stroke="url(#c)"/>
  <path d="m419.65 726.42c0-3.533-1.268-6.411-2.833-6.411-1.564 0-2.832 2.878-2.832 6.411 0 3.542 1.268 6.411 2.832 6.411 1.565 0 2.833-2.869 2.833-6.411z" fill="#000080"/>
  <g stroke-width=".781">
   <path d="m387.14 707.35l17.443 6.559-0.447 20.727-15.505 5.811-7.007-17.148 5.516-15.949z" fill="url(#gk)" stroke="url(#d)"/>
   <path d="m388.05 724.93c0 12.268-3.461 17.738-12.076 21.916-8.316 0-18.934-9.353-18.934-21.621s12.109-19.832 20.425-19.832c5.633 2.094 10.585 7.269 10.585 19.537z" fill="url(#gm)" stroke="url(#gn)"/>
   <path d="m353.46 725.23c-0.21201 10.562 13.126 26.925 21.865 25.652 4.59-0.65497 2.635-4.437 0.647-4.031-8.316 0-18.934-9.353-18.934-21.621s12.109-19.832 20.425-19.832c2.184-1.273 2.759-4.335 0.65302-4.446-13.133-0.67401-24.235 15.192-24.656 24.278z" fill="url(#gj)" stroke="url(#d)"/>
   <path d="m388.05 724.93c0 12.268-3.461 17.738-12.076 21.916 11.661 0.591 13.567-1.153 13.715-21.769-0.14801-21.068-3.992-21.769-12.224-19.684 5.633 2.094 10.585 7.269 10.585 19.537z" fill="url(#gl)" stroke="url(#d)"/>
   <path d="m406.68 725.91c0.521 4.124 2.282 48.658 12.242 9.4 0.006012 1.697 0.232 8.68-0.15701 11.263-0.78 5.174-2.83 8.255-6.867 8.181-8.076-0.14703-10.139-12.055-10.139-28.401 0-16.336 4.15-29.738 14.462-30.034l0.084 2.703c-8.124 3.127-9.625 18.716-9.625 26.888z" fill="url(#gp)" stroke="url(#c)"/>
   <path d="m411.94 649.16l0.382 39.487c7.275 0.028015 0.83902 24.093 8.024 60.824l-1.686-149.27c-2.539 23.478 0.58899 48.743-6.72 48.962z" fill="url(#gf)" stroke="url(#d)"/>
   <path d="m394.9 645.47v47.108l19.979-5.36v-36.977l-19.979-4.771z" fill="url(#gg)" stroke="url(#d)"/>
   <path d="m395.2 660.09c-2.478 0-4.473 1.994-4.473 4.472v8.945c0 2.478 1.995 4.473 4.473 4.473 4.97 0 11.927-2.591 15.505-4.771 2.483-1.65 2.262-7.002 0-8.945-3.578-2.776-10.535-4.174-15.505-4.174z" stroke="url(#c)"/>
   <path d="m407.12 684.69c0.522 1.642 3.28 4.621 4.473 4.621 1.321 0 1.341-0.91302 1.341-2.232v-34.592c0-1.322 0.076996-3.119-1.341-2.535-1.607 0.78699-3.389 1.711-4.25 3.28-1.079 2.043-0.67502 30.215-0.22302 31.458z" fill="url(#gi)" stroke="url(#d)"/>
   <path d="m338.53 668.26c1.973-91.871 27.161-89.966 49.337-97.409-5.969 7.413-4.71 65.506-4.639 98.252 0.069 31.915-3.558 99.343 5.061 95.718-27.313 0.27698-51.321-23.42-49.759-96.561z" fill="none" stroke="url(#c)"/>
   <path d="m335.52 654.17c0 2.693 3.08 7.884 3.651-1.38 0.32498-5.032 0.681-9.727 1.142-14.105 0.92099-8.755 1.992-16.285 3.646-22.674 3.196-12.752 10.692-23.41 9.034-24.692-4.379-3.665-17.474 37.184-17.473 62.851z" fill="url(#fi)" stroke="url(#fi)"/>
   <path d="m335.1 683.54c0-2.693 3.081-7.884 3.652 1.377 0.324 5.037 0.68002 9.732 1.141 14.113 0.92099 8.754 1.992 16.281 3.646 22.673 3.196 12.748 10.693 23.411 9.034 24.694-4.379 3.661-17.473-37.193-17.473-62.857z" fill="url(#d)" stroke="url(#d)"/>
   <path d="m699.64 555.42s-3.578-2.088-5.068 0.89398c-1.492 2.982-1.79 2.982 8.349 25.644 5.068 11.33 8.274 18.113 11.74 25.866 2.87 15.803 4.808 48.677 4.957 61.499-0.14899 12.821-2.087 45.699-4.957 61.5-3.466 7.748-6.672 14.537-11.74 25.865-10.139 22.664-9.841 22.664-8.35 25.643s5.069 0.89502 5.069 0.89502" fill="none" stroke="url(#c)"/>
   <path d="m731.12 669.36c0 78.946-16.186 132.54-84.326 140.42 14.307-1.743 50.923-21.289 53.236-26.704 10.563-23.411 20.351-73.332 20.351-112.8 0-39.475-7.455-92.96-20.568-114.38-7.626-11.697-25.554-17.575-46.512-27.118 61.314 4.362 77.819 61.634 77.819 140.58z" fill="url(#gd)" stroke="url(#c)"/>
   <path d="m605.46 560.99c17.148-6.466 62.971 7.73 94.457 16.024 26.425 61.846 20.381 124.54 0.84399 183.01-31.486 8.856-73.093 26.142-94.458 15.184 27.41-17.434 22.912-72.014 22.771-107.95-0.13898-35.463 4.498-83.494-23.614-106.26z" fill="none" stroke="url(#il)"/>
   <path d="m529.97 789.2c24.749-0.70099 51.584 1.891 76.034-13.422 20.624 8.846 64.804-8.55 95.864-16.4-1.988 7.757-10.387 14.463-7.306 22.368 0.99396 0.646 1.54 2.629 4.771 0.591-5.764 10.737-29.122 18.485-45.919 26.833-24.748 2.786-44.13 1.393-66.195 2.094-32.202-0.39703-45.918 0.69202-62.616-3.284 5.367-1.485 8.648-4.769 5.367-18.78z" fill="url(#ff)" stroke="url(#d)"/>
   <path d="m529.97 789.2c24.749-0.70099 51.584 1.891 76.034-13.422 20.624 8.846 64.804-8.55 95.864-16.4-1.988 7.757-5.914 12.674-10.585 18.19-21.37 8.099-78.42 22.267-100.49 22.959-22.511 0.203-52.255 2.241-60.268 2.758 1.325-2.647 1.081-7.084-0.55902-14.085z" fill="url(#ip)" stroke="url(#c)"/>
   <path d="m605.46 560.99c11.334-3.336 14.965-2.408 23.49-0.67505 18.078 63.04 11.438 156.14 0.24799 216.4-7.036 3.192-12.562 4.234-22.895-1.512 27.41-17.434 22.912-72.014 22.771-107.95-0.13898-35.463 4.498-83.494-23.614-106.26z" fill="url(#hw)" stroke="url(#c)"/>
   <path d="m527.61 770.22v3.847h12.655l-0.226 5.424h-16.045s-1.807-9.04 3.616-9.271z" fill="url(#ew)" stroke="url(#ey)"/>
   <path d="m524.22 779.26l4.294-0.23 0.226 2.038h9.943l1.13 4.52-2.26 1.808h-5.875l-0.452-3.164-7.232-0.452 0.226-4.52z" fill="url(#ev)" stroke="url(#ex)"/>
   <path d="m505.26 610.67l0.421-23.614-9.277-10.543s-29.096-5.904-37.108-5.904c-8.013 0-16.025 2.109-16.025 2.109l-2.53 78.437s3.691-1.793 5.219-3.795c2.612 1.684 9.329 1.264 13.336 1.264 8.012 0 37.108-5.903 37.108-5.903l9.277-10.542-0.421-23.614" fill="url(#he)" stroke="url(#d)"/>
   <path d="m540.44 627.01c-3.004 0-4.18-5.696-4.18-8.7v-17.061c0-3.006 1.062-8.701 4.067-8.701h8.135c3.005 0 5.424 1.854 5.424 4.859-3.842 1.431-5.65 20.601 0 25.309 0.025024 3.157-2.306 4.294-5.311 4.294h-8.135z" fill="url(#hr)" stroke="url(#hm)"/>
   <g fill="none">
    <path d="m446.02 640.19v-30.151h34.578v24.669c-11.736 1.194-23.685 2.178-34.578 5.482z" stroke="url(#hh)"/>
    <path d="m480.38 634.5v-24.669h24.88l0.21 23.826-25.09 0.843z" stroke="url(#hf)"/>
    <path d="m446.02 579.55v30.151h34.578v-24.669c-11.736-1.194-23.685-2.178-34.578-5.482z" stroke="url(#hg)"/>
    <path d="m480.38 585.24v24.668h24.88l0.21-23.825-25.09-0.843z" stroke="url(#hi)"/>
    <path d="m505.02 586.94c5.326 0.21295 10.652 0.42596 15.978 0.63898 4.475-1.491 7.99-3.941 11.505-7.35-11.398-5.327-23.116-7.137-36.112-7.35-0.319 5.965 3.515 10.013 8.629 14.061z" stroke="url(#ho)"/>
   </g>
   <path d="m569.93 594.47l2.26-12.203-21.694-0.678 6.554 15.818 12.88-2.937z" fill="url(#hu)" stroke="url(#c)"/>
  </g>
  <path d="m538.58 593.01c4.473 0.21301 8.947 0.42602 13.422 0.63904 2.29-14.7-39.522-24.767-55.128-21.571l-0.639 2.077c31.638-2.184 42.983 7.936 42.345 18.855z" fill="url(#hq)"/>
  <rect transform="matrix(.92242 0 0 -.92242 52.055 -39.452)" x="557.02" y="-692.26" width="9.4318" height="18.496" rx="2.4498" ry="2.4498" fill="url(#fu)" stroke="url(#c)" stroke-width=".727"/>
  <path d="m504.8 632.88c5.326-0.21295 10.652-0.427 15.978-0.63995 4.475 1.491 7.99 3.942 11.505 7.35-11.398 5.327-23.116 7.138-36.112 7.351-0.319-5.965 3.515-10.014 8.629-14.061z" fill="none" stroke="url(#hn)" stroke-width=".781"/>
  <path d="m538.35 626.81c4.473-0.21295 8.947-0.42596 13.422-0.63898 2.29 14.701-39.522 24.767-55.128 21.572l-0.639-2.078c31.638 2.184 42.984-7.936 42.345-18.855z" fill="url(#hp)"/>
  <g stroke="url(#c)" stroke-width=".781">
   <path d="m563.94 602.71c10.734-1.92 13.777-11.294 3.955-12.089-8.167-0.65399-12.655 3.276-17.175 11.863 0 0-0.22601 7.344-0.112 7.966-0.11401 0.62103 0.112 7.965 0.112 7.965 4.52 8.588 7.63 15.055 15.819 14.801 10.952-0.34296 4.972-9.943-2.712-15.817l0.113-14.689z" fill="url(#hs)"/>
   <path d="m509.6 563.96c10.358 7.72 24.411 9.329 34.801 15.366 5.525 3.271 9.115 10.584 8.587 18.079 1.206-0.90399 2.41-1.808 3.616-2.712-1.13-8.701-6.188-17.159-13.559-20.339-18.386-7.994-20.677-6.251-19.66-21.693-3.314-0.151-5.951 0.15002-9.265 0-1.506 3.766-3.013 7.532-4.52 11.299z" fill="url(#es)"/>
  </g>
  <path d="m561.84 532.55c-0.49701-3.207-6.273-4.975-12.902-3.947-6.63 1.027-11.601 4.458-11.104 7.665 0.49701 3.207 6.273 4.974 12.902 3.947 6.63-1.026 11.601-4.459 11.104-7.665z" fill="url(#ha)" stroke="#00007f"/>
  <g stroke-width=".781">
   <path d="m440.31 770.67l3.035-6.235c-0.85202-32.442-2.502-64.874-2.556-97.313-0.052002-31.425 1.492-62.852 2.237-94.278l-3.995-6.071-3.995-0.32-7.497 102.19 7.178 102.19 5.593-0.157z" fill="url(#ih)" stroke="url(#eq)"/>
   <path d="m443.35 764.44c-0.85202-32.442-2.502-64.874-2.556-97.313-0.052002-31.425 1.492-62.852 2.237-94.278l-3.995-6.071c2.611 33.555-0.90302 67.111-0.79901 100.67-0.053009 34.353 2.131 68.713 1.758 103.06l3.355-6.069z"/>
   <path d="m534.59 788.57l49.855-18.863 27.484-2.232-12.143 9.27-33.557 10.22-31.639 1.605z" fill="url(#et)" stroke="url(#d)"/>
   <path d="m528.2 546.96l0.319 5.113s67.752-0.89002 82.133 19.245c16.96 26.414 15.891 95.398 15.484 95.972-7.494 25.531-1.105 83.044-16.795 100.24-23.391 22.655-80.183 20.718-80.183 20.718l0.3199 1.595s64.876 4.474 85.009-22.691c20.134-27.165 15.34-77.659 16.299-99.707 0.95898-22.051 0.95898-93.318-25.886-106.42-26.845-13.103-76.7-13.103-76.7-14.062z" fill="url(#ik)" stroke="url(#d)"/>
   <path d="m574.54 661.37s-41.226-5.433-49.215-5.433c-7.99 0-9.269 1.278-9.588 11.505-0.31995 10.227-0.31995 15.66 9.907 15.341 10.227-0.32001 49.535-7.032 49.535-7.032l-0.639-14.381z" fill="url(#hx)" stroke="url(#c)"/>
   <path d="m537.78 657.22s-4.474-1.278-12.463-1.278c-7.99 0-9.269 1.278-9.588 11.505-0.31995 10.227-0.31995 15.66 9.907 15.341 5.753-0.32001 7.351-0.96002 11.824-1.279l0.32-24.289z" fill="url(#hy)" stroke="url(#c)"/>
  </g>
  <rect transform="matrix(.92242 0 0 .92242 55.055 -125.45)" x="541.69" y="851.96" width="8.3151" height="18.709" rx="3.1181" ry="3.1181" fill="url(#ia)"/>
  <rect transform="matrix(.92242 0 0 .92242 55.055 -125.45)" x="521.6" y="853" width="4.1576" height="17.323" rx="2.0788" ry="3.4646" fill="url(#hz)"/>
  <g stroke-width=".781">
   <path d="m447.7 598.44c2.529-23.402-4.217-18.132-4.217-18.132s-0.21201-7.59-2.742 70.847c0 0 3.691-1.793 5.219-3.795l1.74-48.92z" fill="url(#hj)" stroke="url(#d)"/>
   <path d="m454.69 663.61s28.294-0.237 32.916-3.195c3.367-2.155 23.65-2.557 25.567 0.31903 1.918 2.876 3.196 14.382 0 16.3-3.195 1.917-20.134 2.556-25.886 0-5.753-2.557-4.794-3.516-13.423-3.516h-29.721l0.32-9.908h10.227z" fill="url(#ib)" stroke="url(#c)"/>
   <path d="m367.21 564.78c-9.162 0-16.445 3.911-24.457 20.241-18.133 29.237-21.085 133.53 0 167.4 9.277 21.815 19.09 21.511 28.674 20.662l33.735-6.3181c23.078-2.952 18.133-6.024 15.18-17.296l-1.686-149.27c2.53-21.812 9.584-26.144-8.434-28.253l-43.012-7.168z" fill="none" stroke="url(#gs)"/>
   <path d="m425.82 674.85c-1.265 18.722 2.437 71.946 6.325 90.505 0.98401 0.83997-73.09 16.862-77.166 15.183-42.919-19.823-42.59-94.133-42.801-112.72-0.211-18.593 0.30402-82.781 41.536-110.19 5.341-4.006 67.608 12.44 79.486 14.548-9.581 38.162-7.38 86.326-7.38 102.68z" fill="url(#en)" stroke="url(#fo)"/>
  </g>
  <path d="m563.94 602.71c10.734-1.92 13.777-11.294 3.955-12.089-8.167-0.65399-12.655 3.276-17.175 11.863 0 0-0.22601 7.344-0.112 7.966-0.11401 0.62103 0.112 7.965 0.112 7.965 4.52 8.588 7.63 15.055 15.819 14.801 10.952-0.34296 4.972-9.943-2.712-15.817l0.113-14.689z" fill="url(#ht)"/>
  <g stroke-width=".781">
   <path d="m439.67 657.22c14.701 0 20.773-0.63898 20.773 11.824 0.319 11.825-4.794 12.464-20.773 11.825v-23.649z" fill="url(#ig)" stroke="url(#d)"/>
   <path d="m439.67 662.97c13.422-0.32001 14.062 0 14.062 5.432 0 5.433 0.31998 7.032-14.062 6.712v-12.144z" fill="url(#if)" stroke="url(#c)"/>
  </g>
  <rect transform="matrix(.92242 0 0 .92242 55.055 -125.45)" x="433.6" y="860.27" width="41.576" height="2.7717" fill="url(#ie)"/>
  <rect transform="matrix(.92242 0 0 .92242 55.055 -125.45)" x="443.64" y="858.89" width="16.977" height="5.197" rx="1.0394" ry="1.0394" fill="url(#id)"/>
  <g stroke-width=".781">
   <rect transform="matrix(.92242 0 0 .92242 55.055 -125.45)" x="474.82" y="854.04" width="19.748" height="14.205" rx="2.7716" ry="2.7716" fill="url(#ic)" stroke="url(#eq)"/>
   <path d="m355.4 781.11l-3.373 3.579 16.599 4.013 67.126-17.37-2.741-8.246c-25.161 9.418-51.607 13.873-77.611 18.024z" fill="url(#fp)" stroke="url(#fq)"/>
   <path d="m356.14 556.87l-3.374-3.585 16.024-4.006 66.837 17.079-2.741 7.379c-25.16-9.418-50.742-12.721-76.746-16.867z" fill="url(#hb)" stroke="url(#d)"/>
   <path d="m579.33 568.05l30.68 3.197s18.856 17.896 16.619 101.95c-2.238 84.047-17.259 94.913-17.259 94.913l-29.401 1.919s-7.12-65.584-5.697-102.67c1.483-38.229 4.738-98.983 5.058-99.303z" fill="url(#ij)" stroke="url(#d)"/>
  </g>
  <g transform="matrix(.92242 0 0 .92242 55.055 -125.45)">
   <g stroke-width=".781">
    <path d="m418.61 877.17l38.707-2.694c4.165 0.73498-2.94 2.939 18.619 2.694 2.94 0 32.338 1.225 38.462 1.475 18.292 2.45 31.93 8.81 49.732 10.28 1.143 25.24 1.552 45.82 4.165 71.3l-41.892 15.43-114.16 0.24 8.819-10.53-2.449-88.195z" fill="url(#ji)" stroke="url(#er)"/>
    <path d="m418.61 879.87s50.466-1.96 61.245-1.47c10.78 0.48999 57.326 5.39 59.286 28.91s1.47 33.32 1.47 33.32c0.98004 18.62-31.848 28.91-50.466 28.42-18.619-0.48999-9.8-10.78-9.8-10.78l-61.735-78.4z" fill="url(#jg)" stroke="url(#jh)"/>
    <path d="m488.38 924.28l0.458 25.6-10.058 11.43s-31.543 6.4-40.229 6.4-17.372-2.28-17.372-2.28l-2.743-85.04s4 1.95 5.657 4.12c2.832-1.83 10.115-1.37 14.458-1.37 8.686 0 40.229 6.4 40.229 6.4l10.058 11.43-0.458 25.6" fill="url(#jf)" stroke="url(#fc)"/>
    <path d="m526.52 906.58c-3.258 0-4.533 6.17-4.533 9.43v18.5c0 3.25 1.153 9.43 4.41 9.43h8.819c3.258 0 5.88-2.01 5.88-5.27-4.165-1.55-6.125-22.33 0-27.44 0.027954-3.42-2.5-4.65-5.757-4.65h-8.819z" fill="url(#jd)" stroke="url(#je)"/>
    <g fill="none">
     <path d="m424.16 892.28v32.69h37.486v-26.74c-12.724-1.3-25.676-2.37-37.486-5.95z" stroke="url(#jc)"/>
     <path d="m461.41 898.45v26.75h26.972l0.229-25.83-27.201-0.92z" stroke="url(#jb)"/>
     <path d="m424.16 958.03v-32.69h37.486v26.74c-12.724 1.3-25.676 2.36-37.486 5.95z" stroke="url(#ja)"/>
     <path d="m461.41 951.85v-26.74h26.972l0.229 25.83-27.201 0.91z" stroke="url(#iz)"/>
     <path d="m488.12 950.01c5.774-0.22998 11.549-0.45996 17.323-0.69 4.85 1.62 8.661 4.27 12.472 7.97-12.357 5.77-25.06 7.74-39.149 7.97-0.34698-6.47 3.811-10.86 9.354-15.25z" stroke="url(#iy)"/>
    </g>
    <path d="m558.5 941.85l2.45 13.23-23.518 0.74 7.104-17.15 13.964 3.18z" fill="url(#ix)" stroke="url(#er)"/>
   </g>
   <path d="m524.5 943.43c4.851-0.23004 9.701-0.46002 14.551-0.69 2.483 15.94-42.845 26.85-59.764 23.38l-0.693-2.25c34.3 2.37 46.599-8.6 45.906-20.44z" fill="url(#iw)"/>
   <rect x="554.08" y="936.82" width="9.4318" height="18.496" rx="2.4498" ry="2.4498" fill="url(#fu)" stroke="url(#c)" stroke-width=".727"/>
   <path d="m487.88 900.21c5.774 0.22998 11.549 0.46002 17.323 0.69 4.85-1.62 8.661-4.27 12.472-7.97-12.357-5.77-25.06-7.74-39.149-7.97-0.34698 6.47 3.811 10.86 9.354 15.25z" fill="none" stroke="url(#iv)" stroke-width=".781"/>
   <path d="m524.26 906.79c4.851 0.22998 9.701 0.45996 14.551 0.69 2.483-15.94-42.845-26.85-59.764-23.38l-0.693 2.25c34.3-2.37 46.599 8.6 45.906 20.44z" fill="url(#iu)"/>
   <g stroke-width=".781">
    <path d="m552 932.91c11.637 2.08 14.935 12.25 4.288 13.11-8.854 0.71002-13.719-3.55-18.619-12.86 0 0-0.245-7.96-0.12299-8.64-0.12201-0.66998 0.12299-8.63 0.12299-8.63 4.9-9.31 8.271-16.32 17.149-16.05 11.872 0.37 5.389 10.78-2.94 17.15l0.122 15.92z" fill="url(#it)" stroke="url(#er)"/>
    <path d="m425.98 937.54c2.743 25.37-4.572 19.66-4.572 19.66s-0.228 8.23-2.971-76.81c0 0 4 1.95 5.657 4.12l1.886 53.03z" fill="url(#is)" stroke="url(#fc)"/>
   </g>
   <path d="m552 932.91c11.637 2.08 14.935 12.25 4.288 13.11-8.854 0.71002-13.719-3.55-18.619-12.86 0 0-0.245-7.96-0.12299-8.64-0.12201-0.66998 0.12299-8.63 0.12299-8.63 4.9-9.31 8.271-16.32 17.149-16.05 11.872 0.37 5.389 10.78-2.94 17.15l0.122 15.92z" fill="url(#ir)"/>
  </g>
  <path d="m678.31 581.08c7.741 4.813 14.713 11.779 20.568 20.385 11.709 17.213 18.951 40.992 18.951 67.259 0 26.269-7.242 50.04-18.951 67.261-5.855 8.607-12.827 15.571-20.568 20.377" fill="none" stroke="url(#im)" stroke-width="1.389"/>
  <g transform="matrix(.92242 0 0 .92242 55.055 -125.45)">
   <path d="m692.81 981.47l6.95 1.46c8.001-4.8 16.809-17.43 12.607-32.41-2.586-2.91-5.819 0.65002-7.758 1.94-7.891 18.53-9.718 17.95-11.799 29.01z" fill="url(#el)" stroke="url(#eo)"/>
   <path d="m704.09 969.27c1.602-3.81 1.543-7.76-0.13-8.83-1.674-1.06-4.329 1.16-5.93 4.96s-1.543 7.75 0.13098 8.82c1.673 1.07 4.328-1.15 5.929-4.95z" fill="none"/>
   <path d="m692.81 981.47c2.047 0.65002 4.903 0.81 6.95 1.46 8.001-4.8 16.809-17.43 12.607-32.41-2.586-2.91-5.819 0.65002-7.758 1.94 1.831 10.13-0.216 23.25-11.799 29.01z" fill="url(#el)" stroke="url(#eo)"/>
   <path d="m717.86 926.04c-0.40399 6.19-3.232 16.51-5.495 24.48-2.586-2.91-5.819 0.65002-7.758 1.94 4.741-11.2 8.297-22.22 13.253-26.42z" fill="url(#fh)" stroke="url(#ez)"/>
   <path d="m704.87 969.71c1.602-3.8 1.543-7.75-0.13-8.82-1.674-1.07-4.329 1.15-5.93 4.95-1.602 3.81-1.543 7.76 0.13 8.83 1.674 1.06 4.329-1.15 5.93-4.96z" fill="url(#fb)"/>
   <path d="m692.81 981.47l6.95 1.46c8.001-4.8 16.809-17.43 12.607-32.41-2.586-2.91-5.819 0.65002-7.758 1.94-7.891 18.53-9.718 17.95-11.799 29.01z" fill="url(#fa)"/>
  </g>
  <g transform="matrix(.92242 0 0 -.92242 39.481 1056.1)">
   <path d="m710.01 539.72l6.95 1.455c8.001-4.795 16.809-17.429 12.607-32.406-2.586-2.909-5.819 0.646-7.758 1.939-7.891 18.526-9.718 17.945-11.799 29.012z" fill="url(#el)" stroke="url(#eo)"/>
   <path d="m721.28 527.51c1.602-3.804 1.543-7.754-0.13-8.821-1.674-1.069-4.329 1.15-5.93 4.954-1.602 3.804-1.543 7.753 0.13098 8.821 1.673 1.068 4.328-1.15 5.929-4.954z" fill="none"/>
   <path d="m710.01 539.72c2.047 0.64703 4.903 0.80902 6.95 1.455 8.001-4.795 16.809-17.429 12.607-32.406-2.586-2.909-5.819 0.646-7.758 1.939 1.831 10.129-0.216 23.248-11.799 29.012z" fill="url(#el)" stroke="url(#eo)"/>
   <path d="m735.06 484.28c-0.40399 6.196-3.232 16.513-5.495 24.487-2.586-2.909-5.819 0.646-7.758 1.939 4.741-11.206 8.297-22.223 13.253-26.426z" fill="url(#fh)" stroke="url(#ez)"/>
   <path d="m722.07 527.96c1.602-3.804 1.543-7.754-0.13-8.822-1.674-1.068-4.329 1.15-5.93 4.954-1.602 3.804-1.543 7.754 0.13 8.822 1.674 1.068 4.329-1.15 5.93-4.954z" fill="url(#fb)"/>
   <path d="m710.01 539.72l6.95 1.455c8.001-4.795 16.809-17.429 12.607-32.406-2.586-2.909-5.819 0.646-7.758 1.939-7.891 18.526-9.718 17.945-11.799 29.012z" fill="url(#fa)"/>
  </g>
  <g stroke-width=".781">
   <path d="m368.77 788.57c-3.037 0-15.261 13.412-17.157 15.515-2.871 2.971 152.44-1.605 179.85-1.263 1.476-4.004 0.42297-1.476-1.264-17.083-2.53-2.187-17.837 0.21198-20.874 0.21198-49.759 0-86.024 2.324-135.78 2.324l-4.771 0.295z" fill="url(#fv)" stroke="url(#c)"/>
   <path d="m502.54 799.92c-1.322 0-8.349 0.76605-8.349 2.085v0.89502c0 1.319 1.362 2.084 2.684 2.084l26.836-0.295c1.321 0 2.684-0.47003 2.684-1.789v-0.89502c0-1.319-3.151-2.085-4.473-2.085h-19.382z" fill="url(#fg)" stroke="url(#fl)"/>
   <path d="m404.91 781.53c-1.817 0-30.025 6.162-28.208 6.162 37.372 0 106.91-0.203 143.16-2.085 2.709-0.12 3.39-3.302 2.982-5.073-1.79-8.043-5.049-7.315-6.858-7.149-36.477 3.579-69.37-10.82-101.8 3.921l-9.277 4.224z" fill="url(#fs)" stroke="url(#fr)"/>
   <path d="m414.61 778.15c-1.818 0-11.359 8.948-9.542 8.948 37.372 0 78.546 0.38702 114.8-1.495 2.709-0.12 3.39-3.302 2.982-5.073-1.79-8.043-5.049-7.315-6.858-7.149-36.477 3.579-64.01 4.769-101.38 4.769z" fill="url(#ft)" stroke="url(#c)"/>
   <path d="m373.54 788.27c-3.037 0 18.974 3.164 30.994 3.164 4.133-0.074036 93.826-0.341 125.66-2.112 0.63306-0.84003 0.42102-2.74 0-3.588-2.53-2.187-17.837 0.21198-20.874 0.21198-49.759 0-86.024 2.324-135.78 2.324z" fill="url(#fm)" stroke="url(#fn)"/>
   <path d="m368.51 788.74c15.009 1.54 23.041 1.309 24.898 7.305 7.757 25.985 7.853 28.918 26.836 28.623l-11.629-32.506c-2.883 0.10101-6.063-0.093018-6.858-3.275l11.629-11.032-44.876 10.885z" fill="url(#fk)" stroke="url(#d)"/>
   <path d="m393.41 796.05c7.757 25.985 7.853 28.918 26.836 28.623l-11.629-32.506c-2.883 0.10101-6.063-0.093018-6.858-3.275 0 0-10.206 1.162-8.349 7.158z" fill="url(#fj)" stroke="url(#c)"/>
   <path d="m509.88 773.84c10.357-7.72 24.41-9.334 34.8-15.367 5.525-3.275 9.114-10.59 8.588-18.08 1.204 0.90399 2.41 1.808 3.615 2.712-1.13 8.699-6.188 17.157-13.559 20.34-18.386 7.988-20.676 6.245-19.66 21.686-3.314 0.15698-5.95-0.14801-9.264 0-1.507-3.764-3.014-7.527-4.52-11.291z" fill="url(#es)" stroke="url(#c)"/>
   <g transform="matrix(.92242 0 0 .92242 55.055 -125.45)" stroke="url(#c)">
    <path d="m408.47 863.11c-0.10599-24.019-1.264-71.19 9.506-107.4-0.457-4.955-4.856-3.173-6.434-3.215-12.468 37.085-9.715 98.119-9.653 116.76 0.061005 18.644-2.815 63.874 9.653 100.96 1.578-0.040039 5.977 1.74 6.434-3.22-10.77-36.2-9.735-83.74-9.506-103.9z" fill="url(#hc)"/>
    <path d="m404.8 861.15c-0.10602-24.02 0.94098-70.455 10.486-108.13-1.192-1.525-2.161-0.47803-3.739-0.52002-12.468 37.085-9.715 98.119-9.653 116.76 0.061005 18.644-2.815 63.874 9.653 100.96 1.578-0.040039 2.547 1.25 3.249-1.5-8.81-37.19-10.47-84.73-10.241-104.88h0.24503v-2.694z" fill="url(#hd)"/>
   </g>
  </g>
 </g>
 <g stroke="url(#fo)" stroke-dasharray="null" stroke-linecap="null" stroke-linejoin="null">
  <g stroke-width=".781">
   <path d="m403.1 551.48l135.7 0.92 40.4 14.8-141.2-0.4-26.4-7.2" fill="url(#en)"/>
   <path d="m403.9 787.48l130.9 0.52 45.6-18-141.2 0.4-23.2 4.8-6.4 6" fill="url(#en)"/>
   <path d="m580.7 769.88l28.1-1.48 6.4-10.8 2.8-11.6 3.9999-18.8 3.2-26.4 0.8-25.6v-23.2l-0.8-24.8-3.2-18.8-4.4-22-7.2-15.2-31.6-4-4 85.6-0.4 39.2 3.2 51.2 1.2 20.4" fill="url(#en)"/>
   <path d="m439.1 567.08l139.3 0.12-3.2 61.2-1.2 57.2 3.2 58 2.4 24.4-0.4 2.4-140.4-0.4 4.4-5.6-2.4-74.8-0.8-17.2 0.4-22.8 2.8-76.8c-1.367-1.907-2.733-3.813-4.1-5.72z" fill="url(#jk)"/>
  </g>
  <g fill="url(#jl)" stroke-width="0">
   <rect x="439.1" y="764.68" width="141.6" height="4.8"/>
   <rect x="438.7" y="567.08" width="141.6" height="4.8"/>
   <path d="m581.5 768.68l-3.9-24.68-2.8-51.6v-29.6l1.2-34.4 2.4-37.2 0.8-19.2h-6.4l-2 57.2-0.7999 33.6-1e-4 30 2.8 52 1.5999 24"/>
  </g>
 </g>
</svg>
