<svg version="1.1" id="Mario" xmlns="http://www.w3.org/2000/svg" x="0px" y="0px"
	 viewBox="0 0 703.9 761.5" style="enable-background:new 0 0 703.9 761.5;" xml:space="preserve">
<style type="text/css">
	.st0{fill:#EC1C24;}
	.st1{fill:#FCD0AF;}
	.st2{fill:#874C2F;}
	.st3{fill:#0066B2;}
	.st4{fill:#FAB16A;}
	.st5{fill:#FFFFFF;}
	.st6{fill:#2BC2E8;}
	.st7{fill:#FFF100;}
	.st8{fill:#0B0204;}
</style>
<g>
	<polygon class="st0" points="342.3,140.7 328.4,122.2 313.9,94.1 307.4,58.3 321,32 348.5,22.7 381.8,30.1 402.9,41.9 424.2,22.1
		457.5,7.9 499.3,7.9 540.6,32.9 570.3,84.5 580.8,136.7 577.4,201 600.6,224.5 605.8,255.7 593.5,282.9 578.7,292.1 566,266.5
		530.5,258.8 517.8,209 497.7,204.7 480.4,190.8 454.1,135.2 379.7,106.4 354.7,121.6 	"/>
	<polygon class="st1" points="342.3,140.7 333,155.6 310.8,148.2 274,155.9 260.1,175 255.5,200.7 265.1,225.4 279.6,240.5
		271.9,267.7 276.8,300.5 312,337.9 324.4,355.5 356.5,368.8 382.5,365.4 405.3,353.3 445.2,352.1 481,336 500.8,346.2 541.6,346.5
		569.1,325.5 578.7,292.1 566,266.5 530.5,258.8 521.5,223.6 517.8,209 497.7,204.7 480.4,190.8 454.1,135.2 379.7,106.4
		354.7,121.6 	"/>
	<polygon class="st2" points="494.9,361.3 500.8,346.2 481,336 445.2,352.1 	"/>
	<polygon class="st0" points="574.3,395.3 494.9,361.3 446.1,352.1 407.8,378 374.1,423.1 388.3,470.7 432.2,454.3 443.3,438.9
		482.9,452.8 518.4,472.3 523.7,443.8 544.7,413.2 	"/>
	<polygon class="st0" points="333,378 285.1,354.5 312,337.9 324.4,355.5 356.5,368.8 	"/>
	<polygon class="st0" points="287.6,324 258.3,320.2 228.9,324.6 223.4,336.3 189.1,353.3 158.2,358.3 126.3,350.5 126,374
		145.8,397.2 194.9,399 197.4,378.3 221.5,349.6 251.2,338.2 	"/>
	<polygon class="st3" points="148.3,443.5 163.7,440.7 173.6,447.5 186.6,399 194.9,399 197.4,378.3 221.5,349.6 287.6,324
		298.1,322.7 312,337.9 285.1,354.5 333,378 356.5,368.8 382.5,365.4 405.3,353.3 446.1,352.1 407.8,378 374.1,423.1 388.3,470.7
		432.2,454.3 409.3,498.5 402.9,545.2 393.6,566.5 412.1,564.3 433.6,578.7 446.7,614.4 449.8,656.7 434.4,687.9 416.5,696.6
		395.2,696.3 387.1,688.8 344.5,690.4 300.3,671.8 270,610.7 225.2,580.4 198.6,592.4 187.2,609.7 167.7,615 173.9,573.6
		167.4,501.3 	"/>
	<polygon class="st2" points="23.2,436.4 43.2,413.6 80.9,401.2 123.9,412.3 148.3,443.5 167.4,501.3 173.9,573.6 167.7,615
		144.3,634.1 127,636.9 134.4,621.5 126.3,547.9 107.5,480 83.1,445.7 47.9,431.5 	"/>
	<polygon class="st4" points="6.8,456.5 23.2,436.4 53.6,430.7 83.1,445.7 107.5,480 123.7,550.5 134.4,621.5 123.9,644.3
		97.1,649.6 69.5,637.8 45.4,595 44.2,580.1 24.8,551.2 6.2,504.4 	"/>
	<polygon class="st2" points="494,736.5 470.1,753.8 441,756.5 405.4,732.9 395.2,696.3 416.5,696.6 434.4,687.9 449.8,656.7
		446.7,614.4 433.5,578.7 412.1,564.3 393.6,566.5 409.6,549.1 434.7,543.7 450,547.9 463.2,565.8 488.3,614.9 504.8,659.5
		505.7,708 	"/>
	<polygon class="st4" points="469.2,544.9 450,547.9 463.2,565.8 488.3,614.9 504.8,659.5 505.7,708 494,736.5 503.3,738.8
		521.6,723.3 526.6,699.3 522.1,658 498.5,606.6 505.1,600.6 491.9,564.3 	"/>
	<polygon class="st5" points="114.8,320.7 101.3,298.3 103.6,264.4 117.4,238.6 149.6,210.2 195.2,195.4 226.6,208.3 246.5,235.2
		244.6,257.3 257.1,269.1 251.9,296 232.1,311.2 228.9,324.6 223.4,336.3 189.1,353.3 158.2,358.2 126.3,350.5 112.9,332.5 	"/>
	<polygon class="st5" points="532.5,495.8 534.5,533.2 555.3,554.2 582.2,551 594.2,572.5 627.5,582.6 648.8,564.8 670.5,554.7
		676.7,533.2 691.3,523.7 693.9,495.6 700.6,475.6 682.9,439.3 641.9,415.9 617,414.4 610.1,400.4 596.1,394.8 574.3,395.3
		544.7,413.2 523.7,443.8 518.4,472.2 	"/>
	<polygon class="st5" points="419.1,55.5 429.7,42.5 450.7,29.6 475.8,29 493.1,37 505.8,54.6 508.6,80 498.6,108.2 478.4,121.7
		443,75.1 	"/>
	<polygon class="st5" points="345.6,171.8 338.7,164.9 346.5,149.4 358.9,136.7 370.7,131.8 379,136.7 380.2,145.9 374.1,162
		358.6,184.8 	"/>
	<polygon class="st5" points="390.3,214.7 392,196 407.5,170.4 427.1,160.9 443.8,164.6 449.9,178.2 443.5,203.5 427.1,225.7
		414.7,230 400.3,231.2 	"/>
	<polygon class="st6" points="350.2,161.2 359.7,149.4 368.7,144.2 374.7,146.2 375.9,154 374.1,162 358.6,184.8 345.6,171.8 	"/>
	<polygon class="st5" points="362.1,159.6 366.1,156.5 370,157.9 370.1,162.4 367,168.4 363.2,169.5 360.2,166.7 	"/>
	<polygon class="st6" points="414,230 405.6,225.6 403.5,214.9 407.5,200.8 414.9,189.4 425.7,179.8 435.8,176.4 443,178.9
		446.1,188 443.5,203.5 427.1,225.7 	"/>
	<polygon class="st5" points="430,193.6 426.3,199.6 427.6,207.5 435.6,205.2 439,198.2 439.2,192.3 	"/>
	<polygon class="st2" points="513.9,267.3 494.5,285.9 473.8,294.2 462.5,282.6 466.4,265 461.3,254.1 468.5,240 492.8,237.7
		521.5,223.6 530.5,258.8 	"/>
	<polygon class="st5" points="387.6,282.4 386.7,298.9 361,304.4 339,307.2 321.8,302.3 319.1,290.3 340.6,291 369.1,287 	"/>
	<polygon class="st0" points="380,321.6 368.4,335.5 352.7,339.9 335,330.8 333,318.3 339,307.2 361,304.4 386.7,298.8 	"/>
	<polygon class="st7" points="245.6,340.3 256.3,347 255.3,358.6 245.6,374.4 224.7,386.4 210.1,386.2 202.5,372.8 221.5,349.6 	"/>
	<polygon class="st7" points="307.9,408.5 305.4,422.1 310.7,436.3 329.5,441.8 348.3,431.6 356.8,413.1 353.1,395.7 336.4,387.8
		318.1,393.9 	"/>
	<path class="st0" d="M436.1,62.9c3-3.3,10.2-9.8,12.7-12.7c0.7,6.5,1.4,13.6,1.9,18.5c5.8-2.7,17.5-7.1,23.8-9.7
		c-1.4,7.4-6.9,30.5-9,38.9c5.2,0.3,14.6,0.7,18.3,0.8c0.5-6.7,3.7-41.2,4.3-54.9c-10.6,3.6-23.7,10.1-30.9,13.2
		c-0.3-4.7-1-11.4-1.8-22c-8.3,5.6-21.8,16.4-26.6,20.6C431.3,59.6,433.5,60.6,436.1,62.9"/>
	<path class="st8" d="M442.1,210.4c8.5-13.2,12.3-26.9,10.1-36.8c-1.2-5.2-4-9.3-8.1-11.8c-14.6-9.1-34.7-1.1-47.8,19
		c-7.8,12.1-11.1,25.7-8.8,36.3c1.4,6.5,4.9,11.7,10.1,15C409.9,240,429,230.6,442.1,210.4z M409.6,226.9c-2.1-1.4-3.5-3.5-4.2-6.4
		c-1.5-6.7,1.3-16.5,7.2-25.6c8.8-13.5,20.7-20,28.3-15.2c1.5,0.9,2.6,2.5,3,4.6c0.6,2.5,0.3,5.7-0.6,9.3c-0.3-2.1-1.3-3.7-2.9-4.7
		c-6.3-3.9-15.6,1.2-21.9,10.9c-6.3,9.7-7.5,20.6-1.5,24.4c0.6,0.4,1.3,0.6,2,0.8c-2.2,1.3-4.4,2.3-6.5,2.9
		C411.5,227.7,410.5,227.4,409.6,226.9 M435.9,201.8c-1.7,2.6-4.7,3.6-6.7,2.3c-1.9-1.3-2.1-4.5-0.4-7c1.7-2.6,4.7-3.6,6.7-2.3
		C437.5,196,437.6,199.2,435.9,201.8 M400.9,226.9c-3.8-2.4-6.3-6.2-7.4-11.1c-2-9,1-20.8,8-31.6c11.1-17.2,27.6-24.3,39.2-17.1
		c2.7,1.7,4.5,4.3,5.3,7.9c0.5,2.3,0.6,4.8,0.3,7.6c-0.7-2.3-2-4.2-4-5.4c-9-5.5-22.5,1.2-32.1,16.1c-6.4,9.9-9.2,20.2-7.6,27.7
		c0.7,3.3,2.3,5.8,4.7,7.6C405,228.6,402.8,228.1,400.9,226.9 M620.3,447.9c4.9,4.6,5,9.1,2.3,11.8c-2.6,2.7-7.4,1.2-11.6-2.6
		c-4.4-3.9-8-12.5-6.7-14.4C605.4,441.3,615.2,443.1,620.3,447.9 M638.5,441.1c-1.5,3.1-6,3.2-10.6,1.2c-4.9-2.1-10.5-8.3-9.9-10.3
		c0.5-1.6,9.4-3,15.1-0.3C638.5,434.2,639.9,438,638.5,441.1 M601.9,468.2c1.5,6.3-0.9,10-4.5,10.8c-3.7,0.8-6.8-2.9-8.3-8.1
		c-1.5-5.5,0.2-14.3,2.3-15.1C593.2,455.1,600.3,461.6,601.9,468.2 M326.6,425.3c7.9-2.5,15-8.6,17-18.6c1-5.2,2.9-2.4,3.2,1.2
		c0.8,11.8-8.3,18.7-16.7,20C325,428.6,321.8,426.8,326.6,425.3 M501.1,306.9c8.4-18.6,29-22.9,40.7-17.3c4.2,2,7.3,5.8,8.2,8.2
		c2.1,5.4-1.3,3.8-4.1,1.7c-6.8-5.2-14.5-5.4-21.9-2.5c4.2,3,7,8.8,4.7,15.9c-1.9,5.9-4,4.6-4.2,1.5c-0.5-9.1-4.1-12.9-9.3-12.6
		c-4,2.9-7.7,6.5-10.8,10.5C499,319,497.7,314.4,501.1,306.9 M223.9,373.5c7.7-2.6,13.4-6.5,17.3-14.7c1.9-4,3.3-1.7,2.6,1.3
		c-2,9.6-9.7,14.5-17.2,15.9C222.2,376.8,219.7,374.9,223.9,373.5 M674.8,428.1c-17.8-13-37.2-18.1-54.3-17.9
		c-5.2-15.6-22.9-21.7-42.4-18.6c-20.7-11.3-46.1-22-73.2-31c2.1-2.6,3-5.9,2.6-9.2c29.9,4.8,62.8-8.8,71.9-39.4
		c1.6-5.5,2.3-10.7,2.3-15.6c16.2-6.6,26.8-21.1,28.7-39.5c2.3-22.5-8.9-44.2-28.6-56.1c1.8-6.5,3.4-14.3,4.5-23
		c5.5-41.8-5.7-100.1-25.7-128.8c-20.7-29.6-47.8-47-75.8-48.8c-30.8-2-62.7,12.7-82.7,35.8c-9.2-5.6-17.6-9.9-24.3-12.1
		C314.9,2.8,293,47.9,306.7,89.2c5.1,15.5,17.4,36.4,29.6,51.7c-2.1,3.2-4,6.2-5.8,9.2c-5.7-3.1-11.6-5.2-17.4-6.2
		c-50.5-9-77.5,44.7-54.8,80.8c-7.8,13.8-1.8,23.1,7.1,24.1c-1.5,4.7-0.6,9.9,1.7,13.8c-3.4,20.4,3.2,38.1,17.1,53.7
		c-17.6-1.3-37.1-0.5-52.4,2.2c-0.1-0.4-0.2-0.8-0.2-1.2c6.8-4.2,13.4-9.4,18.1-14.3c14.2-14.7,16.9-38,1-48.5
		c3.3-22.1-9.7-52.9-44.1-61c-34.2-8.1-81.7,19.1-102.4,58.3c-12.8,24.2-12.1,50.2,5.2,68.4c-5.5,11.1,0.8,23.5,10.1,30.8
		c-3.2,15.6,0.3,29.9,9.9,39.8c10.8,11.1,28.3,15.8,50.1,13.7c-5.4,10-9.6,22.5-11.3,32.9c-5.2-2.3-11.1-3.1-17.5-1.5
		c-2.4-4.5-4.9-8.5-7.5-12c-29.1-38.6-101-36.4-123.5,11.4c-22.7,17.8-22.8,51.7-16,76.4c8,27.4,21.1,51.9,36.2,68.5
		c0.1,18.4,11.2,43.7,26.9,60.1c15.9,17.1,47.5,20.2,63.1,1c14.5-0.5,30.6-7.8,38.7-21.1c12.8,1.3,26.6-7.1,32.3-21.5
		c7.7-3.8,15.1-8,22.3-12.6c11.8,11.8,25.3,20.7,39.7,26.7c9.3,26.7,22.3,56,45.5,71.4c21.8,14.5,47.9,15,72.6,8.5
		c2.3,1.9,4.8,3.4,7.4,4.8c1.5,28.7,22.5,59.1,51.9,63.5c19.5,2.9,37.9-2.5,51.1-15.8c32.8-0.4,44-33,38.2-69.1
		c-4.7-28.7-14.6-50.6-25.5-68.8c3.2-2.2,4.5-5.4,3.6-9.4c-6.4-28.9-16.8-47.2-31-54.4c-8.1-4.2-17.3-4.4-26.7-1
		c-14.9-6.3-30.1-5.8-41.4,0.7c3.6-12.6,5.8-27.2,6.1-44.4c5.5-12.5,20-39.3,32.8-53.9c21.5,7.5,43.4,17.5,67.6,30.8
		c1.7,7.4,5.7,15.3,12.3,20.5c-4.1,19.2-1.5,40.1,13.6,53.6c14.3,12.8,27.7,12.7,37.6,9.3c13.7,24,37.6,28.7,51.7,25.8
		c7.8-1.6,14.3-6.3,18.3-13.1c12.2-2,23.1-10.5,27.7-21.6c1-2.6,1.9-5.5,2.5-8.6c14.6-8.2,18.8-22.7,17.7-35.9
		C715,475.7,694.3,442.4,674.8,428.1 M492.5,356.7c-7.6-2.3-15.4-4.5-23.1-6.6c4.8-2,9.5-4.5,13.8-7.4c3.8,2.2,7.8,4.1,11.9,5.6
		C497.1,351.3,496,354.9,492.5,356.7 M372,415.3c-7.3,12.7-11.8,21.6-25.2,31.5c-24.3,18-53.2,1.7-45.3-27.6
		c0.3-0.9,0.6-1.9,0.9-2.8c-0.2,1.7-0.4,3.4-0.3,5c0.2,6.7,2.8,12.7,7.3,16.9c10.6,10,29,7.7,41-5c12-12.7,13.1-31.2,2.5-41.2
		c-4.5-4.2-10.6-6.4-17.3-6.2c-2.5,0.1-5.1,0.5-7.5,1.2c8.4-5.7,17.9-10.4,27.1-14.3c15.7,1.8,33.8-2.4,53.7-14.1
		c4.9,0.3,10.8,0.4,17.1,0.2C404.3,371.9,382.2,399,372,415.3 M316.9,401.8c5.2-5.6,12.1-8.9,18.8-9.1c4.9-0.2,9.2,1.4,12.3,4.4
		c3.4,3.2,5.1,7.8,5.1,12.7c0,6.3-2.7,13.1-7.9,18.7c-9.4,9.9-23.3,12.1-31.2,4.7c-3.2-3-4.9-7.2-5.1-12
		C308.8,414.4,311.6,407.4,316.9,401.8 M252.1,348.2c1.1,1.4,1.4,3.4,1.1,5.8c-0.9,6.4-6.6,14.3-14.6,20.3c-8,6-17.2,9.2-23.6,8.3
		c-2.4-0.3-4.2-1.2-5.2-2.7c-1.1-1.4-1.4-3.4-1.1-5.8c0.9-6.4,6.6-14.3,14.6-20.3C235.7,344.5,248.5,343.3,252.1,348.2 M202,379.1
		c0.4,1.8,1.2,3.5,2.3,5c2.2,2.9,5.6,4.8,9.8,5.4c8.2,1.2,19.2-2.5,28.7-9.6c9.5-7.1,16.1-16.7,17.3-24.9c0.1-0.9,0.2-1.8,0.2-2.6
		c0-3.2-0.9-6-2.6-8.3c-1-1.3-2.2-2.4-3.6-3.2c14-6.3,28.9-11,43.4-12.1c2.8,2.3,5.8,4.5,8.9,6.7c0.1,0.2,0.3,0.5,0.4,0.7
		c-29.5,11.9-67.6,54-78.9,59.6C207,406.1,193.8,392.7,202,379.1 M310.4,342.7c8.3,13.3,19.4,22.8,32.8,27.3c-2.3,1-4.5,2.1-6.8,3.2
		c-8.7-5.7-27.9-15.4-42.9-21.1C299.1,348.4,304.7,345.1,310.4,342.7 M483.6,12.9c27.8,2.7,46.5,16,65,43.7
		c26.2,39.3,33.1,98.6,22,159.7c-2.3,12.7,2.5,9.4,7.7-4.6c14.6,9.9,22.8,26.7,21,44c-1.4,13.1-8.4,23.6-19.1,29.1
		c-3.9-14.8-14.8-25.1-25.6-28.6c-7.5-2.5-14.3-2.9-20.5-1.9c-9.7-56.6-29.1-100.4-48.9-132.6c8-4.1,14.5-10.4,18.6-18.1
		c8-15,9.7-33.6,4.5-48.6c-4.3-12.4-13-21.7-25-26.9c-21.7-9.4-47.5-0.7-62.6,20.6c-3.4-2.5-6.8-4.9-10.1-7.2
		C428.3,22.6,457.3,10.3,483.6,12.9 M474.1,262.6C474.1,262.6,474.1,262.6,474.1,262.6L474.1,262.6c-4.5-2.2-7.6-5.8-6-12
		c1.5-5.7,7.2-6.4,18.7-7.8c15.3-1.9,25.8-5.4,32.6-11.5c2,8.2,3.8,16.7,5.4,25.5c-11.1,4.1-19.5,11.9-25.2,17.2
		c-10.1,9.5-17.4,15.1-25.5,11.9C466.2,282.6,465.3,270.2,474.1,262.6 M428.9,55c-0.9-0.7-1.8-1.4-2.7-2.1
		c13.2-18.8,35.6-26.6,54.3-18.4c10.2,4.4,17.5,12.3,21.2,22.8c4.6,13.2,3,29.7-4.1,43c-3.6,6.8-9.2,12.1-16.2,15.5
		C459.7,82.1,438.1,62.4,428.9,55 M316.8,86.1c-12.1-39,8.1-67.9,56.9-51.2c13.1,4.5,25.1,11.9,47.1,29.5
		c19.4,15.6,64.6,60.4,90.9,140.2c-15.6-2.1-25.9-13.8-34.5-29.1c8-15.9,7.5-33.3-4.1-41.7c-5-3.6-11.4-4.7-18.2-3.8
		c-1.9-3.6-3.9-7.2-6-10.6c-21.8-34.9-46-54.3-58.7-62.2c-23.5-14.6-48-15.2-28.6-6.4c30.5,13.8,52.2,33,77.2,71.4
		c-13.7-6.8-28.6-12.4-43.1-16.3c-0.8-5.4-3.1-9.5-7-11.1c-7.3-3.1-15.3,0.6-21.8,9.2c-8.4,7.9-17,18.2-24.4,28.4
		C331.4,118.2,321.9,102.4,316.8,86.1 M368.1,164.7c-1.4,2.3-3.5,3.2-4.9,2.2c-1.3-1.1-1.3-3.7,0.1-6c1.4-2.2,3.5-3.2,4.9-2.2
		C369.5,159.8,369.4,162.5,368.1,164.7 M373.3,157.7c-0.2-1.5-0.7-2.7-1.7-3.5c-4.3-3.5-11.3,0.9-16.5,9.2c-0.9,1.4-1.6,2.8-2.3,4.3
		c-0.9-1-1.9-2-2.8-3c0.8-1.5,1.7-3.1,2.7-4.6c5.1-8,11.2-13.5,16-14.3c1.7-0.3,3.1,0.1,4.3,1C374.8,148.4,374.8,152.5,373.3,157.7
		 M376.7,147.8c-0.4-1.3-1.1-2.3-2.1-3.2c-1.8-1.5-4-2-6.5-1.6c-5.6,0.9-12.3,6.7-17.9,15.5c-0.8,1.3-1.6,2.7-2.4,4.1
		c-1.1-1-2.2-2-3.3-3c1.1-2.3,2.4-4.6,3.9-6.9c6.3-9.8,14.1-16.5,20.4-17.5c2.5-0.4,4.5,0.1,6.2,1.6
		C377.2,138.7,377.7,142.7,376.7,147.8 M276.9,269.4c2.6,0.2,5.3-0.5,8.1-2.6c1.4,13.2,18.4,19.1,28.9,8.3
		c9.7,14.9,34.8,16.3,40,2.9c3.7,3.4,8,5.6,12.3,6.9c-16.1,3.3-37.5,4.4-49.9,2.1c-3.5-0.7-7.1-1.2-10.2-3.5c-2.5-1.9-3.7,3.4,1,7.2
		c1.5,1.2,3.8,2.4,6.7,3.1c9.8,33.9,26.9,52.1,45.8,48.6c16.9-3.1,32.9-25.6,31.8-61.7c2.5-2.1,4.4-4.8,5.5-7.9
		c20,9.6,40.2-3.5,35.7-34.1c-0.2-1.5-0.6-1.8-2.2-1.2c-25.5,9.7-43.7,11.1-67.1,6.1c1.4-0.9,2.9-1.8,4.2-2.8l-6-8.5
		c-18.9,13.1-41.9,15.2-65.8,6.5c-56.9-20.7-34.1-92.4,15.1-83.4c22,4,41.7,22.1,48.3,43.9l10-2.7c-1.3-4.5-3.1-8.8-5.3-13
		c2.8-3,5.5-6.5,8-10.5c6.3-9.9,11-21.2,11-29.8c0-4.5-1.3-8.2-4.2-10.6c-2.9-2.4-6.6-3.4-10.6-2.8c-7.9,1.2-17,8.7-24.2,20
		c-1.3,2.1-2.6,4.2-3.7,6.4c-0.6-0.4-1.2-0.9-1.8-1.3c6.4-11,16-24.5,25.9-35.7c12-9.7,21.1-8.2,24.2,14.9c0.4,3,1.3,2.8,2.3,0.3
		c2.6-6.3,4.2-12.6,4.9-18.4c15.3,4.3,31.3,10.8,45.2,18.2c-7.3,3.3-14.2,8.3-19.5,14c-2.2,2.3-1.6,3.1,1.5,2.5
		c29.6-5.7,46.1,4.6,44.2,36c-0.2,2.9,0.5,3,2.3,0.9c0.6-0.7,1.2-1.5,1.8-2.3c9.1,15.8,20.9,26.8,43.8,29.1c0.6,2,1.2,4,1.8,6
		c-5.4,8.5-17.5,12.7-30.4,13.2c-16.2,0.7-24.4,5.1-27.4,13.3c-2.2,6.1-0.6,14.3,4.3,18.2c-9,13.7-2.7,27.4,7.4,31.4
		c14.5,5.8,27.1-9.6,34.4-17.2c10.3-10.6,28.1-20.9,47.1-15.3c12.3,3.6,26.6,18,18.4,44.9c-10.9,35.8-62.6,41.6-88.1,19
		c-17,16-46.9,21-76.2,18.6c-44.4,28.1-77.7,13.4-90.8-19.9C288.4,312.2,275.9,291.6,276.9,269.4 M337.2,326c-1.6-5.7-0.2-11.4,4-16
		c13.8-0.2,31-3.6,41.7-8.2c-3.9,19.4-13.8,31.8-24.5,33.7C352,336.7,344.4,334.2,337.2,326 M384,293.5c-9.5,5.6-33.5,10.4-48.5,9.5
		c-8.5-0.5-10.9-3.3-12-8.2c18.9,0.9,46.8-1.5,60.9-8.4C384.4,288.8,384.3,291.2,384,293.5 M116.6,326.2c4.7,3,12.2,6.3,21.2,7.2
		c13.6,1.2,16.3-2.8,9.2-4.3c-41.1-8.6-49.8-41.2-33.3-73c18.5-35.5,61.1-58.6,90.7-51.6c23.9,5.7,36.5,26.3,35,45.5
		c-2.1-0.4-4.3-0.7-6.8-0.9c-2.8-0.2-6.4,0.3-10.4,1.3c-0.3-2.9-1.8-9.7-8.3-19c-8.9-12.8-16.7-12.5-13.6-7.6
		c7.1,11.1,11.3,20.3,13,29.6c-6.7,2.7-13.7,6.5-19.8,11.3c-0.8-3.5-2.8-9.3-7.8-16.5c-8.9-12.8-16.7-12.5-13.5-7.6
		c7.8,12.1,12,21.9,13.3,32c-3.4,4.2-5.9,8.8-6.9,13.8c-0.7,3.3-0.4,6.5,0.6,9.4c-3.7,2.9-8.5,3.8-13.2,1.8
		c-0.9-12.9-9.3-25.1-14.7-30.2c-9.6-9.2-12.9-6.3-9-0.7c7,10.2,20.6,34.3,11.5,43.8c-7.9,8.1-19.8,3.1-32.3-13.9
		c-3.5-4.8-7-3.4-2.8,6.7c7.3,17.3,30.2,28.7,42,13c2.5-3.4,4.1-7,4.8-10.6c5.3,1.8,11.4,1.8,16.5-1.3c0.6-0.3,1.2-0.7,1.8-1.1
		c5,5.2,12.5,8.3,18.6,7.6c5.7-0.1,13-2.1,16.3-3.8c11.9-6.3,15.3-16.6,8.3-12.9c-29.4,15.8-41.1,3.5-39.1-6
		c2.8-13.4,24.7-26.5,44.5-28.2c19.4-1.6,25.3,21.3,10.1,36.9c-14.8,15.1-33.3,21.3-47.8,25.3c-11.9,3.3,3.2,7.6,21.2,2.7
		c2.5-0.7,5.3-1.8,8.2-3.2c-0.6,8.9-10.5,16.7-20.6,21.8c-18.3,9.2-53.3,12.6-73.3,3.2C120.9,342,114.9,333.9,116.6,326.2
		 M138.1,382.5c-6.2-6.4-8.7-15.3-7.4-25.6c23.7,9.3,54.6,6.4,77.4-5.2c8.8-4.4,19.6-12.1,23.1-22.6c10.7-2.2,24.3-3.3,37.9-3.3
		c-11.3,3.4-22.1,8.2-32.6,13.8c-5.6,1.5-11.6,4.4-17.3,8.7c-4.6,3.5-8.5,7.5-11.5,11.7c-1.3,1.2-2.6,2.4-3.8,3.7
		c-5.8,6.1-14.5,15.8-13.5,27.3C166.5,395.7,148.1,392.8,138.1,382.5 M106.1,643.5c12.2-9.7,16.5-38.8,3.7-68.9
		c-2.7-39-9-58.7-15.8-77.5c-11.3-31.1-32.2-47.9-50.4-49c-10.9-0.6-16.4,1-21.5,7.4c-3.8,5.2-2.8,8.7-0.9,6.6
		c5.5-6.2,10.3-8.3,21.4-7.5c12.9,0.9,34,17,44.4,44.4c6.6,17.4,13.9,43.8,16.2,77c12.1,34.6,4.8,63.2-7.4,65.2
		c-6.7,1.1-14.5-2-22.1-9.5c-13-13.6-24-38.9-23.3-50.4c11.8-1.8,33.7-4.5,45.2-4.9c5.2-0.3,3.3-2.6-1.3-3.8
		c-11.1-1.6-36-2.5-46.4,4.2c-15.7-21-27.5-44.4-33.9-68.2c-7.1-23.5-6.5-53,13.1-68.1c8.3-6.4,20.6-6.2,31.2-3
		c22.5,6.9,37,25.7,45.1,46.2c9.9,25.1,14.8,43.8,18.7,84.4c9.6,23.2,9.5,53.6,3.6,63.4C121.6,638.6,114.2,642.5,106.1,643.5
		 M135.8,629.4c4-16.4,1.8-45.3-7.2-63.7c-2.5-37.8-9.5-64.1-17.6-84.4c-9-22.5-25-43.7-50.4-51.4c-7.8-2.4-16-2.8-23.6-1.4
		c22.1-27.7,72.6-27.9,97.2,1.5c31.7,38.1,42.5,139.1,29.5,177.1C159.2,620.6,148.7,627.5,135.8,629.4 M315.3,674.4
		c-18-13.3-28.8-34.3-36.9-56.6c25.7,6.6,53.2,4.2,78.2-8.2c11.3-5.6,26.7-16.3,38.9-35.8c11.8-9.4,25.3-7.4,38.4,15.1
		c7.9,13.6,22.9,70.3-4.7,95.2c-9.2,8.3-23.2,8.9-34.5,3.1c17.4-12.7,14.4-15.3,4.8-11.6C363.6,689.1,334.6,688.6,315.3,674.4
		 M442.4,750.9c-22.7-3.9-38.9-26.1-41.6-49.6c12.8,2.3,26.5-0.7,35.5-9.2c33.2-31.2,14.2-91.4,5-107.2
		c-11.2-19.4-23.7-26.3-35.5-24.6c6.7-8.2,21.1-13.7,33.8-10.3c17.2,6,27.3,26.5,40.5,56.1c14.3,31.8,20.4,52.9,22,70.7
		C507.3,734,471.9,756,442.4,750.9 M471.9,553.2c10.6,5.4,19.2,21.1,24.8,45.2c-1.4,1-6,3.2-6,3.2c19.1,28.7,26.2,51.1,29.6,75.7
		c3,22-0.8,49.6-19.2,55.2c7.9-13.9,11.7-32.7,9.2-56.3c-1.9-18.7-8.6-40.8-23.2-73.2c-9.3-20.6-17.8-39.6-30.2-51.1
		C462.3,550.6,467.9,551.1,471.9,553.2 M402.6,495.7c-1.3,49.3-15.7,84.9-51.5,102.6c-55.5,27.5-103.8-3.4-124.9-27.3
		c-11.6,7.2-22.8,12.7-35,18.1c-2.2,11.3-10.2,16.9-17.3,18.1c9.1-32.4,2.5-111-17.2-159c8.2-1.7,20.8,7.3,27.2,18.8
		c2.6,4.7,4.6-1.6,1.8-10.4c16.1-13.5,35.9-19.4,54.8-15.9c24.1,4.4,45.4,23.1,61.7,53.9l10.5-5.5c-22.7-43.2-50.6-56.5-70-60.1
		c-21.6-4-44.2,2.2-62.7,16.9c-0.2-0.2-0.3-0.3-0.5-0.5c0.2-13,7.9-33.9,15.8-43.2c13.1,12.4,30.6,5.6,37.2,1.7
		c11.6-6.8,30.5-28.3,51.7-44.9c12.3,3.9,31.4,13.1,42.5,19.5c-15,9-27.9,21-33.7,38.9c-11.7,36.3,27.6,61.7,60.1,37.8
		c7.8-5.7,13.8-12.9,18.8-20.3c5.8,15.6,11.1,32.2,13.9,43.9c6.8-3.4,20.7-10.1,33.5-15.3C412.5,474.9,406.6,486.5,402.6,495.7
		 M427.9,450.1c-12.4,4.1-26.5,10.9-35.9,15.6c-2.9-10.9-8.1-26.4-13.8-41c0.8-1.4,1.6-2.7,2.3-4.1c11.6-18.8,36.2-50.5,57.1-59.2
		c6-2.5,11.4-3.6,16.4-2.9c38.1,9,77.5,22.9,107.7,37.9c-24.3,11.3-44.2,40.2-46.9,65.2c-33.5-17.8-63.6-29.8-94-37.4l-2.9,11.5
		c5.7,1.4,11.4,3,17.1,4.8C432.6,443.4,430.2,446.7,427.9,450.1 M680,526.9c-1.9-16.3-11.9-26.7-10-15.3
		c3.5,21.1-2.4,41.8-16.7,47.2c0.4-3,0.4-6.1,0-9.3c-1.1-9.4-9.5-23-8.7-7.7c1,20.5-6.2,29.8-17.4,33c-10.5,3-32.5-6.6-39.4-20.3
		c2.5-1.6,4.6-3.2,6-4.4c1.2,1.8,2.2,3.6,2.9,5.5l9.1-3.3c-4-10.9-14.3-20.2-28.3-25.6l-3.5,9.1c4.6,1.8,8.7,4,12.1,6.6
		c-8.2,5.2-26,9-38.5-2.7c-21.2-19.8-8-61.8,9-84.8c3.4-4.6-1-5.2-7.5,0.6c-7.7,6.9-14.6,18.1-18.8,30.8c-4.1-4.9-6.1-10.6-6.5-17
		c-1.4-25.3,23.6-57.3,49.8-66.8c17.6-6.4,32.4-1,37.7,8.6c-13.9,3.1-19.2,12.6-12.6,10.6c3.8-1.1,7.8-2.1,12.1-2.6
		c18.7-1.9,41.7,4.1,57.7,16.9c16.8,13.4,28.5,34.5,23.7,52c-4.1-7.5-12-12.8-8.1-3.2C690.6,500.7,690.5,518.7,680,526.9"/>
	<polygon class="st0" points="342.3,140.7 328.4,122.2 313.9,94.1 307.4,58.3 321,32 348.5,22.7 381.8,30.1 402.9,41.9 424.2,22.1
		457.5,7.9 499.3,7.9 540.6,32.9 570.3,84.5 580.8,136.7 577.4,201 600.6,224.5 605.8,255.7 593.5,282.9 578.7,292.1 566,266.5
		530.5,258.8 517.8,209 497.7,204.7 480.4,190.8 454.1,135.2 379.7,106.4 354.7,121.6 	"/>
	<polygon class="st1" points="342.3,140.7 333,155.6 310.8,148.2 274,155.9 260.1,175 255.5,200.7 265.1,225.4 279.6,240.5
		271.9,267.7 276.8,300.5 312,337.9 324.4,355.5 356.5,368.8 382.5,365.4 405.3,353.3 445.2,352.1 481,336 500.8,346.2 541.6,346.5
		569.1,325.5 578.7,292.1 566,266.5 530.5,258.8 521.5,223.6 517.8,209 497.7,204.7 480.4,190.8 454.1,135.2 379.7,106.4
		354.7,121.6 	"/>
	<polygon class="st2" points="494.9,361.3 500.8,346.2 481,336 445.2,352.1 	"/>
	<polygon class="st0" points="574.3,395.3 494.9,361.3 446.1,352.1 407.8,378 374.1,423.1 388.3,470.7 432.2,454.3 443.3,438.9
		482.9,452.8 518.4,472.3 523.7,443.8 544.7,413.2 	"/>
	<polygon class="st0" points="333,378 285.1,354.5 312,337.9 324.4,355.5 356.5,368.8 	"/>
	<polygon class="st0" points="287.6,324 258.3,320.2 228.9,324.6 223.4,336.3 189.1,353.3 158.2,358.3 126.3,350.5 126,374
		145.8,397.2 194.9,399 197.4,378.3 221.5,349.6 251.2,338.2 	"/>
	<polygon class="st3" points="148.3,443.5 163.7,440.7 173.6,447.5 186.6,399 194.9,399 197.4,378.3 221.5,349.6 287.6,324
		298.1,322.7 312,337.9 285.1,354.5 333,378 356.5,368.8 382.5,365.4 405.3,353.3 446.1,352.1 407.8,378 374.1,423.1 388.3,470.7
		432.2,454.3 409.3,498.5 402.9,545.2 393.6,566.5 412.1,564.3 433.6,578.7 446.7,614.4 449.8,656.7 434.4,687.9 416.5,696.6
		395.2,696.3 387.1,688.8 344.5,690.4 300.3,671.8 270,610.7 225.2,580.4 198.6,592.4 187.2,609.7 167.7,615 173.9,573.6
		167.4,501.3 	"/>
	<polygon class="st2" points="23.2,436.4 43.2,413.6 80.9,401.2 123.9,412.3 148.3,443.5 167.4,501.3 173.9,573.6 167.7,615
		144.3,634.1 127,636.9 134.4,621.5 126.3,547.9 107.5,480 83.1,445.7 47.9,431.5 	"/>
	<polygon class="st4" points="6.8,456.5 23.2,436.4 53.6,430.7 83.1,445.7 107.5,480 123.7,550.5 134.4,621.5 123.9,644.3
		97.1,649.6 69.5,637.8 45.4,595 44.2,580.1 24.8,551.2 6.2,504.4 	"/>
	<polygon class="st2" points="494,736.5 470.1,753.8 441,756.5 405.4,732.9 395.2,696.3 416.5,696.6 434.4,687.9 449.8,656.7
		446.7,614.4 433.5,578.7 412.1,564.3 393.6,566.5 409.6,549.1 434.7,543.7 450,547.9 463.2,565.8 488.3,614.9 504.8,659.5
		505.7,708 	"/>
	<polygon class="st4" points="469.2,544.9 450,547.9 463.2,565.8 488.3,614.9 504.8,659.5 505.7,708 494,736.5 503.3,738.8
		521.6,723.3 526.6,699.3 522.1,658 498.5,606.6 505.1,600.6 491.9,564.3 	"/>
	<polygon class="st5" points="114.8,320.7 101.3,298.3 103.6,264.4 117.4,238.6 149.6,210.2 195.2,195.4 226.6,208.3 246.5,235.2
		244.6,257.3 257.1,269.1 251.9,296 232.1,311.2 228.9,324.6 223.4,336.3 189.1,353.3 158.2,358.2 126.3,350.5 112.9,332.5 	"/>
	<polygon class="st5" points="532.5,495.8 534.5,533.2 555.3,554.2 582.2,551 594.2,572.5 627.5,582.6 648.8,564.8 670.5,554.7
		676.7,533.2 691.3,523.7 693.9,495.6 700.6,475.6 682.9,439.3 641.9,415.9 617,414.4 610.1,400.4 596.1,394.8 574.3,395.3
		544.7,413.2 523.7,443.8 518.4,472.2 	"/>
	<polygon class="st5" points="419.1,55.5 429.7,42.5 450.7,29.6 475.8,29 493.1,37 505.8,54.6 508.6,80 498.6,108.2 478.4,121.7
		443,75.1 	"/>
	<polygon class="st5" points="345.6,171.8 338.7,164.9 346.5,149.4 358.9,136.7 370.7,131.8 379,136.7 380.2,145.9 374.1,162
		358.6,184.8 	"/>
	<polygon class="st5" points="390.3,214.7 392,196 407.5,170.4 427.1,160.9 443.8,164.6 449.9,178.2 443.5,203.5 427.1,225.7
		414.7,230 400.3,231.2 	"/>
	<polygon class="st6" points="350.2,161.2 359.7,149.4 368.7,144.2 374.7,146.2 375.9,154 374.1,162 358.6,184.8 345.6,171.8 	"/>
	<polygon class="st5" points="362.1,159.6 366.1,156.5 370,157.9 370.1,162.4 367,168.4 363.2,169.5 360.2,166.7 	"/>
	<polygon class="st6" points="414,230 405.6,225.6 403.5,214.9 407.5,200.8 414.9,189.4 425.7,179.8 435.8,176.4 443,178.9
		446.1,188 443.5,203.5 427.1,225.7 	"/>
	<polygon class="st5" points="430,193.6 426.3,199.6 427.6,207.5 435.6,205.2 439,198.2 439.2,192.3 	"/>
	<polygon class="st2" points="513.9,267.3 494.5,285.9 473.8,294.2 462.5,282.6 466.4,265 461.3,254.1 468.5,240 492.8,237.7
		521.5,223.6 530.5,258.8 	"/>
	<polygon class="st5" points="387.6,282.4 386.7,298.9 361,304.4 339,307.2 321.8,302.3 319.1,290.3 340.6,291 369.1,287 	"/>
	<polygon class="st0" points="380,321.6 368.4,335.5 352.7,339.9 335,330.8 333,318.3 339,307.2 361,304.4 386.7,298.8 	"/>
	<polygon class="st7" points="245.6,340.3 256.3,347 255.3,358.6 245.6,374.4 224.7,386.4 210.1,386.2 202.5,372.8 221.5,349.6 	"/>
	<polygon class="st7" points="307.9,408.5 305.4,422.1 310.7,436.3 329.5,441.8 348.3,431.6 356.8,413.1 353.1,395.7 336.4,387.8
		318.1,393.9 	"/>
	<path class="st0" d="M436.1,62.9c3-3.3,10.2-9.8,12.7-12.7c0.7,6.5,1.4,13.6,1.9,18.5c5.8-2.7,17.5-7.1,23.8-9.7
		c-1.4,7.4-6.9,30.5-9,38.9c5.2,0.3,14.6,0.7,18.3,0.8c0.5-6.7,3.7-41.2,4.3-54.9c-10.6,3.6-23.7,10.1-30.9,13.2
		c-0.3-4.7-1-11.4-1.8-22c-8.3,5.6-21.8,16.4-26.6,20.6C431.3,59.6,433.5,60.6,436.1,62.9"/>
	<path class="st8" d="M442.1,210.4c-13.1,20.2-32.2,29.6-44.5,21.7c-5.2-3.3-8.7-8.5-10.1-15c-2.3-10.6,1-24.2,8.8-36.3
		c13-20.2,33.1-28.1,47.8-19c4.1,2.6,6.9,6.7,8.1,11.8C454.4,183.5,450.6,197.2,442.1,210.4z M412.7,227.8c2.1-0.6,4.3-1.6,6.5-2.9
		c-0.7-0.2-1.4-0.4-2-0.8c-6.1-3.8-4.8-14.7,1.5-24.4c6.3-9.7,15.5-14.8,21.9-10.9c1.6,1,2.5,2.6,2.9,4.7c0.9-3.6,1.2-6.8,0.6-9.3
		c-0.5-2.1-1.5-3.7-3-4.6c-7.6-4.7-19.5,1.7-28.3,15.2c-5.9,9.1-8.6,18.9-7.2,25.6c0.6,2.9,2,5.1,4.2,6.4
		C410.5,227.4,411.5,227.7,412.7,227.8 M435.5,194.7c-1.9-1.3-4.9-0.3-6.7,2.3c-1.7,2.6-1.6,5.7,0.4,7c1.9,1.3,4.9,0.3,6.7-2.3
		C437.6,199.2,437.5,196,435.5,194.7 M407.4,228.6c-2.3-1.8-4-4.3-4.7-7.6c-1.6-7.5,1.2-17.8,7.6-27.7c9.6-14.9,23.1-21.6,32.1-16.1
		c1.9,1.2,3.2,3,4,5.4c0.3-2.8,0.2-5.4-0.3-7.6c-0.8-3.5-2.6-6.2-5.3-7.9c-11.6-7.2-28.1-0.1-39.2,17.1c-7,10.8-9.9,22.6-8,31.6
		c1.1,4.9,3.6,8.7,7.4,11.1C402.8,228.1,405,228.6,407.4,228.6 M604.3,442.8c-1.3,1.8,2.3,10.4,6.7,14.4c4.2,3.7,8.9,5.3,11.6,2.6
		c2.6-2.7,2.6-7.2-2.3-11.8C615.2,443.1,605.4,441.3,604.3,442.8 M633,431.7c-5.7-2.6-14.6-1.3-15.1,0.3c-0.6,1.9,5,8.2,9.9,10.3
		c4.6,1.9,9.1,1.8,10.6-1.2C639.9,438,638.5,434.2,633,431.7 M591.4,455.8c-2.1,0.8-3.8,9.7-2.3,15.1c1.4,5.2,4.6,8.9,8.3,8.1
		c3.7-0.8,6.1-4.5,4.5-10.8C600.4,461.6,593.2,455.1,591.4,455.8 M330.1,427.9c8.3-1.2,17.5-8.2,16.7-20c-0.3-3.6-2.1-6.3-3.2-1.2
		c-2,9.9-9.1,16.1-17,18.6C321.8,426.8,325,428.6,330.1,427.9 M504.3,312.4c3.2-4,6.9-7.6,10.8-10.5c5.2-0.3,8.8,3.5,9.3,12.6
		c0.2,3,2.3,4.4,4.2-1.5c2.3-7.1-0.5-13-4.7-15.9c7.4-2.9,15.2-2.7,21.9,2.5c2.8,2.2,6.1,3.7,4.1-1.7c-0.9-2.4-4-6.2-8.2-8.2
		c-11.7-5.7-32.2-1.4-40.7,17.3C497.7,314.4,499,319,504.3,312.4 M226.7,376c7.5-1.4,15.2-6.3,17.2-15.9c0.6-3-0.7-5.3-2.6-1.3
		c-3.9,8.2-9.6,12.1-17.3,14.7C219.7,374.9,222.2,376.8,226.7,376 M697,505.4c1,13.2-3.2,27.7-17.7,35.9c-0.6,3-1.5,6-2.5,8.6
		c-4.6,11.2-15.4,19.6-27.7,21.6c-4,6.8-10.5,11.5-18.3,13.1c-14.1,2.9-38.1-1.7-51.7-25.8c-10,3.4-23.3,3.5-37.6-9.3
		c-15.1-13.5-17.7-34.3-13.7-53.6c-6.6-5.2-10.6-13.1-12.3-20.5c-24.3-13.3-46.1-23.3-67.6-30.8c-12.9,14.6-27.4,41.5-32.8,53.9
		c-0.3,17.2-2.6,31.9-6.1,44.4c11.3-6.5,26.5-7,41.4-0.7c9.4-3.4,18.5-3.2,26.7,1c14.1,7.2,24.6,25.5,31,54.4c0.9,4-0.4,7.2-3.7,9.4
		c10.9,18.3,20.8,40.1,25.5,68.8c5.8,36-5.3,68.6-38.1,69.1c-13.1,13.3-31.6,18.7-51.1,15.8c-29.4-4.4-50.4-34.8-51.9-63.5
		c-2.6-1.3-5.1-2.9-7.4-4.8c-24.8,6.5-50.8,6-72.6-8.5c-23.2-15.4-36.2-44.7-45.5-71.4c-14.4-5.9-28-14.9-39.7-26.7
		c-7.3,4.6-14.6,8.8-22.3,12.6c-5.7,14.3-19.5,22.7-32.3,21.5c-8.1,13.3-24.2,20.6-38.7,21.1c-15.6,19.2-47.2,16.1-63.1-1
		c-15.7-16.4-26.8-41.6-26.9-60.1C25,563.6,11.9,539.1,3.9,511.7c-6.7-24.7-6.7-58.6,16-76.4c22.6-47.8,94.5-50,123.5-11.4
		c2.6,3.5,5.1,7.5,7.5,12c6.4-1.6,12.3-0.8,17.5,1.5c1.7-10.4,5.9-23,11.3-32.9c-21.9,2.1-39.3-2.5-50.1-13.7
		c-9.6-9.9-13.1-24.2-9.9-39.8c-9.3-7.4-15.6-19.7-10.1-30.8c-17.3-18.2-18-44.2-5.2-68.4c20.7-39.3,68.2-66.5,102.5-58.3
		c34.4,8.2,47.4,38.9,44.1,61c15.9,10.5,13.2,33.8-1,48.5c-4.7,4.9-11.4,10.2-18.2,14.3c0.1,0.4,0.2,0.8,0.2,1.2
		c15.2-2.7,34.8-3.5,52.4-2.2c-13.9-15.6-20.5-33.3-17.1-53.7c-2.3-4-3.2-9.1-1.7-13.8c-8.8-1-14.9-10.3-7.1-24.1
		c-22.7-36,4.3-89.7,54.8-80.8c5.8,1,11.7,3.2,17.4,6.2c1.7-2.9,3.7-6,5.8-9.2c-12.2-15.3-24.5-36.2-29.6-51.7
		c-13.7-41.3,8.2-86.5,71.1-65.4c6.6,2.2,15.1,6.5,24.3,12.1c20-23,51.9-37.8,82.7-35.8c28,1.8,55.1,19.2,75.8,48.8
		c20,28.7,31.2,87.1,25.7,128.8c-1.1,8.7-2.8,16.4-4.5,23c19.7,11.9,31,33.6,28.6,56.1c-1.9,18.4-12.5,32.9-28.7,39.5
		c0,4.9-0.7,10.1-2.3,15.6c-9.1,30.6-42,44.2-71.9,39.4c0.4,3.3-0.5,6.6-2.6,9.2c27.1,9,52.6,19.7,73.2,31
		c19.5-3.1,37.2,3,42.4,18.6c17.2-0.2,36.5,4.8,54.3,17.9C694.3,442.4,715,475.7,697,505.4 M495.1,348.3c-4.1-1.5-8.1-3.3-11.9-5.6
		c-4.3,3-9,5.4-13.8,7.4c7.8,2,15.5,4.2,23.1,6.6C496,354.9,497.1,351.3,495.1,348.3 M425.7,358.8c-6.3,0.2-12.1,0.1-17.1-0.2
		c-19.9,11.7-38,15.8-53.7,14.1c-9.1,3.9-18.6,8.6-27.1,14.3c2.5-0.7,5-1.2,7.5-1.2c6.7-0.2,12.8,2,17.3,6.2
		c10.6,10,9.5,28.5-2.5,41.2c-12,12.7-30.4,15-41,5c-4.5-4.2-7.1-10.2-7.3-16.9c-0.1-1.7,0.1-3.3,0.3-5c-0.3,0.9-0.6,1.9-0.9,2.8
		c-7.8,29.3,21.1,45.6,45.4,27.6c13.3-9.9,17.8-18.8,25.1-31.5C382.2,399,404.2,371.9,425.7,358.8 M309,421.1c0.1,4.9,1.9,9,5.1,12
		c7.8,7.4,21.8,5.2,31.2-4.7c5.2-5.6,7.9-12.4,7.9-18.7c0-4.9-1.7-9.5-5.1-12.7c-3.2-3-7.4-4.5-12.3-4.4c-6.7,0.2-13.6,3.5-18.8,9.1
		C311.6,407.4,308.8,414.4,309,421.1 M223.3,353.8c-8,6-13.7,13.9-14.6,20.3c-0.3,2.4,0,4.3,1.1,5.8c1.1,1.4,2.8,2.3,5.2,2.7
		c6.4,0.9,15.6-2.4,23.6-8.3c8-6,13.7-13.9,14.6-20.3c0.3-2.4,0-4.3-1.1-5.8C248.5,343.3,235.8,344.5,223.3,353.8 M227.8,395.7
		C239,390,277.2,348,306.6,336c-0.1-0.2-0.3-0.5-0.4-0.7c-3.1-2.2-6.1-4.4-8.9-6.7c-14.4,1.1-29.4,5.8-43.4,12.1
		c1.4,0.8,2.7,1.9,3.6,3.2c1.7,2.3,2.6,5.1,2.6,8.3c0,0.8-0.1,1.7-0.2,2.6c-1.2,8.2-7.8,17.8-17.3,24.9c-9.5,7.1-20.5,10.8-28.7,9.6
		c-4.2-0.6-7.6-2.5-9.8-5.4c-1.1-1.5-1.8-3.1-2.3-5C193.8,392.7,207,406.1,227.8,395.7 M293.6,352.2c15,5.7,34.2,15.4,42.9,21.1
		c2.2-1.1,4.5-2.2,6.8-3.2c-13.4-4.5-24.5-14.1-32.8-27.3C304.7,345.1,299.1,348.4,293.6,352.2 M410.5,41.4
		c3.3,2.3,6.7,4.7,10.1,7.2c15.1-21.3,40.9-30,62.6-20.6c12,5.2,20.6,14.5,25,26.9c5.2,15,3.5,33.6-4.5,48.6
		c-4.1,7.7-10.7,14-18.6,18.1c19.8,32.1,39.2,76,48.9,132.6c6.2-0.9,13.1-0.5,20.5,1.9c10.8,3.6,21.7,13.9,25.6,28.6
		c10.8-5.5,17.8-16,19.2-29.1c1.8-17.3-6.4-34.1-21-44c-5.2,14-10,17.2-7.7,4.6c11.1-61.1,4.2-120.4-22-159.7
		c-18.5-27.8-37.2-41-65-43.7C457.3,10.3,428.3,22.6,410.5,41.4 M474.2,285.7c8.1,3.2,15.4-2.4,25.5-11.9
		c5.7-5.3,14.1-13.1,25.2-17.2c-1.6-8.8-3.4-17.3-5.4-25.5c-6.8,6.2-17.3,9.6-32.6,11.5c-11.5,1.4-17.2,2.1-18.7,7.8
		c-1.6,6.2,1.5,9.8,6,12l0,0c0,0,0,0,0,0C465.3,270.2,466.2,282.6,474.2,285.7 M481.4,115.8c7-3.5,12.6-8.8,16.2-15.5
		c7.1-13.3,8.7-29.8,4.1-43c-3.7-10.5-11-18.4-21.2-22.8c-18.7-8.1-41.1-0.3-54.3,18.4c0.9,0.7,1.8,1.4,2.7,2.1
		C438.1,62.4,459.7,82.1,481.4,115.8 M342.3,132.4c7.4-10.2,16-20.5,24.5-28.4c6.5-8.6,14.5-12.3,21.8-9.2c3.9,1.6,6.2,5.7,7,11.1
		c14.5,3.9,29.5,9.5,43.1,16.3c-25-38.4-46.6-57.6-77.2-71.4c-19.4-8.8,5.1-8.1,28.6,6.4c12.7,7.9,36.9,27.3,58.7,62.2
		c2.1,3.4,4.1,7,6,10.6c6.8-0.8,13.2,0.2,18.2,3.8c11.6,8.4,12,25.7,4.1,41.7c8.7,15.3,19,27,34.5,29.1
		C485.4,124.9,440.2,80,420.8,64.4c-22-17.6-34-25-47.1-29.5c-48.8-16.7-69,12.3-56.9,51.2C321.9,102.4,331.4,118.2,342.3,132.4
		 M368.1,158.7c-1.3-1.1-3.5-0.1-4.9,2.2c-1.4,2.3-1.4,4.9-0.1,6c1.3,1.1,3.5,0.1,4.9-2.2C369.4,162.5,369.4,159.8,368.1,158.7
		 M372.9,146.8c-1.2-0.9-2.6-1.3-4.3-1c-4.8,0.8-10.9,6.3-16,14.3c-1,1.6-1.8,3.1-2.6,4.6c1,1,1.9,2,2.8,3c0.7-1.4,1.4-2.9,2.3-4.3
		c5.2-8.3,12.3-12.7,16.6-9.2c1,0.8,1.5,2,1.7,3.5C374.8,152.5,374.8,148.4,372.9,146.8 M375,136.8c-1.7-1.4-3.8-1.9-6.2-1.6
		c-6.3,1-14.1,7.7-20.4,17.5c-1.5,2.3-2.8,4.6-3.9,6.9c1.1,1,2.2,2,3.3,3c0.7-1.4,1.5-2.8,2.4-4.1c5.6-8.8,12.3-14.6,17.9-15.5
		c2.5-0.4,4.7,0.1,6.5,1.6c1,0.8,1.7,1.9,2.1,3.2C377.7,142.7,377.2,138.7,375,136.8 M315.2,326.7c13.2,33.3,46.5,48,90.9,19.9
		c29.3,2.4,59.3-2.6,76.2-18.6c25.5,22.5,77.2,16.8,88.1-19c8.2-26.9-6-41.3-18.4-44.9c-19-5.6-36.8,4.8-47.1,15.3
		c-7.4,7.6-20,23-34.5,17.2c-10.1-4-16.4-17.7-7.4-31.4c-4.9-3.8-6.6-12.1-4.3-18.2c3-8.2,11.3-12.6,27.4-13.3
		c13-0.6,25.1-4.8,30.4-13.2c-0.6-2-1.2-4-1.8-6c-23-2.3-34.7-13.4-43.8-29.1c-0.6,0.8-1.2,1.5-1.8,2.3c-1.7,2-2.4,1.9-2.3-0.9
		c1.9-31.4-14.6-41.7-44.2-36c-3.1,0.6-3.7-0.2-1.5-2.5c5.3-5.7,12.2-10.7,19.5-14c-13.9-7.4-29.9-13.9-45.2-18.2
		c-0.6,5.7-2.3,12.1-4.9,18.4c-1,2.5-1.9,2.7-2.3-0.3c-3.1-23-12.2-24.6-24.2-14.9c-10,11.1-19.5,24.6-25.9,35.7
		c0.6,0.4,1.2,0.9,1.8,1.3c1.1-2.2,2.3-4.3,3.7-6.4c7.2-11.3,16.3-18.7,24.2-20c4-0.6,7.7,0.3,10.6,2.8c2.9,2.4,4.2,6.2,4.2,10.6
		c0,8.6-4.7,19.9-11,29.8c-2.5,3.9-5.2,7.5-8,10.5c2.2,4.2,4,8.5,5.3,13l-10,2.7c-6.6-21.8-26.3-39.8-48.2-43.9
		c-49.3-9.1-72,62.7-15.1,83.4c23.9,8.7,46.9,6.6,65.8-6.5l6,8.5c-1.4,1-2.8,1.9-4.2,2.8c23.4,5,41.6,3.7,67.2-6.1
		c1.6-0.6,1.9-0.4,2.2,1.2c4.5,30.6-15.7,43.7-35.7,34.1c-1,3.2-3,5.8-5.5,7.9c1.1,36.2-15,58.7-31.8,61.7
		c-19,3.5-36-14.7-45.8-48.6c-2.9-0.7-5.2-1.8-6.7-3.1c-4.7-3.8-3.5-9.1-1-7.2c3,2.3,6.7,2.9,10.2,3.5c12.4,2.3,33.8,1.3,49.9-2.1
		c-4.3-1.3-8.6-3.5-12.3-6.9c-5.3,13.4-30.3,12-40-2.9c-10.4,10.8-27.5,4.9-28.8-8.3c-2.8,2.1-5.5,2.8-8.1,2.6
		C275.9,291.6,288.4,312.2,315.2,326.7 M358.3,335.5c10.7-1.9,20.6-14.3,24.5-33.7c-10.7,4.5-27.9,8-41.7,8.2
		c-4.2,4.6-5.6,10.3-4,16C344.4,334.2,352,336.7,358.3,335.5 M384.5,286.3c-14.1,7-42,9.3-60.9,8.4c1.1,4.9,3.6,7.7,12,8.2
		c15,0.9,39-3.9,48.5-9.5C384.3,291.2,384.4,288.8,384.5,286.3 M130.4,346.4c20.1,9.3,55,6,73.3-3.2c10.2-5.1,20.1-12.9,20.6-21.8
		c-2.9,1.4-5.6,2.5-8.2,3.2c-18,4.9-33.2,0.7-21.2-2.7c14.5-4,33-10.2,47.8-25.3c15.2-15.5,9.4-38.5-10-36.9
		c-19.8,1.7-41.7,14.7-44.5,28.2c-2,9.5,9.7,21.8,39.1,6c7-3.8,3.6,6.5-8.3,12.9c-3.3,1.7-10.5,3.7-16.3,3.8
		c-6.2,0.7-13.6-2.4-18.6-7.6c-0.6,0.4-1.2,0.8-1.8,1.1c-5.1,3.2-11.2,3.1-16.5,1.3c-0.8,3.6-2.3,7.2-4.8,10.6
		c-11.8,15.8-34.8,4.3-42-13c-4.3-10.1-0.7-11.5,2.8-6.7c12.5,17,24.4,22,32.3,13.9c9.2-9.4-4.5-33.6-11.5-43.8
		c-3.8-5.6-0.6-8.5,9,0.7c5.4,5.1,13.8,17.3,14.7,30.2c4.6,2,9.5,1.1,13.2-1.8c-1-2.9-1.3-6-0.6-9.4c1.1-5,3.5-9.6,6.9-13.8
		c-1.3-10.2-5.6-20-13.3-32c-3.1-4.9,4.6-5.2,13.6,7.6c5.1,7.3,7,13,7.8,16.5c6-4.8,13.1-8.6,19.7-11.3c-1.7-9.3-5.8-18.5-13-29.6
		c-3.1-4.9,4.6-5.2,13.5,7.7c6.5,9.4,7.9,16.2,8.3,19c4-1,7.6-1.5,10.4-1.3c2.4,0.1,4.7,0.4,6.8,0.9c1.4-19.2-11.1-39.8-35-45.5
		c-29.6-7-72.2,16-90.7,51.6c-16.6,31.8-7.8,64.4,33.3,73c7.2,1.5,4.4,5.6-9.2,4.3c-9-0.8-16.5-4.1-21.2-7.2
		C114.9,333.9,120.9,342,130.4,346.4 M190.3,390.9c-1-11.4,7.7-21.1,13.5-27.3c1.2-1.3,2.5-2.5,3.8-3.7c3-4.2,6.9-8.2,11.5-11.7
		c5.7-4.3,11.7-7.2,17.3-8.7c10.5-5.5,21.3-10.3,32.6-13.8c-13.5-0.1-27.2,1.1-37.9,3.3c-3.5,10.6-14.3,18.2-23.1,22.6
		c-22.8,11.6-53.6,14.4-77.4,5.2c-1.3,10.3,1.2,19.2,7.4,25.6C148.1,392.8,166.5,395.7,190.3,390.9 M125.8,631.5
		c5.9-9.8,5.9-40.2-3.6-63.4c-3.9-40.6-8.8-59.3-18.7-84.4c-8-20.4-22.6-39.3-45.1-46.2c-10.7-3.3-22.9-3.5-31.2,3
		c-19.6,15.2-20.2,44.6-13.1,68.1c6.4,23.8,18.2,47.2,33.9,68.2c10.4-6.7,35.3-5.7,46.4-4.2c4.5,1.2,6.4,3.5,1.3,3.8
		c-11.6,0.4-33.5,3.1-45.3,4.9c-0.7,11.5,10.3,36.8,23.3,50.4c7.6,7.5,15.4,10.6,22.1,9.5c12.2-2,19.5-30.6,7.4-65.2
		c-2.3-33.2-9.6-59.6-16.2-77c-10.4-27.4-31.5-43.4-44.4-44.4c-11.1-0.8-15.9,1.3-21.4,7.5c-1.9,2.1-2.9-1.5,0.9-6.6
		c5.1-6.4,10.6-8.1,21.4-7.4c18.2,1.1,39.2,17.8,50.4,49c6.8,18.8,13.1,38.5,15.8,77.5c12.8,30.1,8.5,59.2-3.7,68.9
		C114.2,642.5,121.6,638.6,125.8,631.5 M163.8,607.2c13-38,2.2-139-29.5-177.1c-24.5-29.5-75.1-29.3-97.2-1.5
		c7.7-1.5,15.8-1,23.7,1.4c25.4,7.8,41.4,28.9,50.4,51.4c8.1,20.3,15.1,46.5,17.6,84.4c8.9,18.4,11.1,47.3,7.2,63.7
		C148.7,627.5,159.2,620.6,163.8,607.2 M399.4,675.6c9.6-3.6,12.6-1.1-4.8,11.6c11.3,5.8,25.3,5.3,34.5-3.1
		c27.6-24.9,12.6-81.6,4.7-95.2c-13.1-22.5-26.6-24.5-38.4-15.1c-12.1,19.5-27.5,30.1-38.9,35.8c-25,12.4-52.5,14.8-78.2,8.2
		c8.1,22.3,18.9,43.3,36.9,56.6C334.6,688.6,363.6,689.1,399.4,675.6 M502.1,676.7c-1.6-17.8-7.7-38.9-22-70.7
		c-13.3-29.6-23.4-50.1-40.5-56.1c-12.7-3.5-27.1,2.1-33.8,10.3c11.9-1.7,24.3,5.2,35.5,24.6c9.2,15.8,28.2,76-5,107.2
		c-9.1,8.5-22.8,11.5-35.5,9.2c2.7,23.6,18.9,45.7,41.6,49.6C471.9,756,507.3,734,502.1,676.7 M456.9,551.8
		c12.4,11.5,20.9,30.5,30.2,51.1c14.6,32.5,21.3,54.6,23.2,73.2c2.4,23.6-1.4,42.4-9.2,56.3c18.3-5.6,22.2-33.2,19.2-55.2
		c-3.4-24.6-10.5-47-29.6-75.7c0,0,4.6-2.2,6-3.2c-5.6-24.1-14.1-39.7-24.7-45.2C467.9,551.1,462.3,550.6,456.9,551.8 M419.2,463.7
		c-12.9,5.2-26.7,11.9-33.5,15.3c-2.8-11.7-8.1-28.3-13.9-43.9c-5,7.4-11,14.5-18.8,20.3c-32.5,23.9-71.8-1.6-60.1-37.8
		c5.8-17.9,18.6-29.9,33.7-38.9c-11-6.4-30.2-15.6-42.5-19.5c-21.1,16.6-40.1,38.1-51.7,44.9c-6.6,3.9-24.1,10.7-37.2-1.7
		c-7.9,9.3-15.5,30.2-15.8,43.2c0.2,0.2,0.3,0.3,0.5,0.5c18.4-14.7,41.1-20.9,62.7-16.9c19.4,3.5,47.3,16.9,70,60.1l-10.5,5.5
		c-16.2-30.9-37.6-49.5-61.7-53.9c-18.9-3.5-38.7,2.3-54.8,15.9c2.9,8.8,0.8,15.2-1.8,10.4c-6.4-11.6-19-20.6-27.2-18.8
		c19.7,48,26.3,126.6,17.2,159c7.2-1.2,15.1-6.8,17.3-18.1c12.2-5.4,23.4-10.9,35-18.1c21,24,69.4,54.8,124.9,27.3
		c35.8-17.8,50.3-53.3,51.5-102.6C406.6,486.5,412.5,474.9,419.2,463.7 M435,440.4c-5.7-1.7-11.4-3.3-17.1-4.8l2.9-11.5
		c30.4,7.6,60.6,19.6,94,37.4c2.7-24.9,22.7-53.8,46.9-65.2c-30.3-15-69.6-28.9-107.8-37.9c-4.9-0.7-10.4,0.4-16.4,2.9
		c-21,8.6-45.6,40.4-57.1,59.2c-0.8,1.4-1.5,2.7-2.3,4.1c5.7,14.6,10.9,30.1,13.8,41c9.3-4.6,23.5-11.5,35.9-15.6
		C430.2,446.7,432.6,443.4,435,440.4 M684.2,484.9c-3.9-9.7,4-4.4,8.1,3.2c4.7-17.4-7-38.6-23.7-52c-16-12.8-39-18.7-57.7-16.9
		c-4.3,0.4-8.4,1.4-12.1,2.6c-6.6,2-1.3-7.5,12.6-10.6c-5.3-9.5-20.1-14.9-37.7-8.6c-26.2,9.5-51.2,41.4-49.8,66.8
		c0.4,6.4,2.3,12.1,6.5,17c4.2-12.7,11.1-23.9,18.8-30.8c6.5-5.8,10.9-5.2,7.5-0.6c-17,23.1-30.2,65-9,84.8
		c12.5,11.7,30.3,8,38.5,2.7c-3.5-2.6-7.6-4.9-12.1-6.6l3.5-9.1c14,5.4,24.4,14.7,28.3,25.6l-9.1,3.3c-0.7-1.9-1.7-3.7-2.9-5.5
		c-1.4,1.2-3.5,2.8-6,4.4c6.9,13.7,29,23.3,39.4,20.3c11.2-3.2,18.4-12.5,17.4-33c-0.8-15.3,7.6-1.8,8.7,7.7c0.4,3.3,0.3,6.4,0,9.3
		c14.2-5.4,20.2-26.1,16.7-47.2c-1.9-11.4,8.2-1,10,15.3C690.5,518.7,690.6,500.7,684.2,484.9"/>
</g>
</svg>